<svg id='slide2' width="74" height="19" viewBox="0 0 74 19" fill="none" xmlns="http://www.w3.org/2000/svg">
  <path d="M24.5465 11.2548V5.16615C24.5465 4.80968 24.5182 4.08009 24.4617 2.97739L25.2177 5.65096L27.0124 11.2548H28.4962L30.2908 5.65096C30.3175 5.56699 30.3466 5.47226 30.3782 5.36677L30.4172 5.23501C30.5711 4.71016 30.7763 3.95762 31.0327 2.97739C30.9903 4.02305 30.9679 4.6148 30.9656 4.75264C30.9632 4.89048 30.9621 5.02831 30.9621 5.16615V11.2548H32.8132V1.20927H30.0365L28.2065 7.10538L27.7613 8.71665L27.4222 7.36917L27.2668 6.82733L25.4862 1.20927H22.6953V11.2548H24.5465ZM36.5455 11.3973C37.6666 11.3973 38.505 10.8911 39.0608 9.87876H39.1032C39.1503 10.3588 39.2928 10.7224 39.5307 10.9696C39.7686 11.2167 40.1372 11.3403 40.6365 11.3403C40.7778 11.3403 40.9014 11.3356 41.0074 11.326C41.1134 11.3165 41.2135 11.3047 41.3077 11.2904C41.4019 11.2761 41.4961 11.2571 41.5903 11.2334C41.6845 11.2096 41.7905 11.1835 41.9083 11.1549V10.0713C41.767 10.0998 41.6209 10.114 41.4702 10.114C41.2441 10.114 41.0828 10.032 40.9862 9.86806C40.8897 9.70408 40.8414 9.40583 40.8414 8.97331V6.16428C40.8414 5.28022 40.5799 4.59817 40.0571 4.11811C39.5342 3.63806 38.79 3.39803 37.8244 3.39803C36.8682 3.39803 36.1133 3.59172 35.5598 3.97909C35.0064 4.36646 34.666 4.93563 34.5389 5.68661L36.6091 5.78642C36.6515 5.39667 36.7586 5.11743 36.9306 4.9487C37.1025 4.77997 37.3722 4.6956 37.7396 4.6956C38.1353 4.6956 38.4202 4.81799 38.5945 5.06277C38.7688 5.30755 38.8559 5.68185 38.8559 6.18567V6.57779L37.2097 6.60631C36.2299 6.61582 35.4821 6.8297 34.9663 7.24797C34.4505 7.66623 34.1926 8.27462 34.1926 9.07312C34.1926 9.80984 34.3999 10.3814 34.8144 10.7878C35.2289 11.1942 35.806 11.3973 36.5455 11.3973ZM37.1814 9.99996C36.9035 9.99996 36.6809 9.91084 36.5137 9.7326C36.3465 9.55436 36.2629 9.28225 36.2629 8.91627C36.2629 8.63109 36.3135 8.40295 36.4148 8.23184C36.5161 8.06073 36.6633 7.93359 36.8564 7.85041C37.0495 7.76723 37.3769 7.71614 37.8385 7.69713L38.8559 7.68287V8.07499C38.8559 8.41245 38.7829 8.73209 38.6369 9.03391C38.4909 9.33573 38.2895 9.57219 38.0328 9.7433C37.7761 9.9144 37.4923 9.99996 37.1814 9.99996ZM44.7997 11.2548V7.46898C44.7997 6.67523 44.9375 6.07635 45.2131 5.67235C45.4886 5.26834 45.8737 5.06634 46.3683 5.06634C46.6132 5.06634 46.8958 5.10199 47.2162 5.17328V3.49785C47.0607 3.42655 46.8558 3.3909 46.6014 3.3909C46.2906 3.3909 46.0315 3.44437 45.8242 3.55132C45.617 3.65826 45.438 3.82224 45.2872 4.04325C45.1365 4.26427 44.9646 4.6457 44.7715 5.18754H44.7432C44.7432 5.04495 44.7314 4.7562 44.7079 4.3213C44.6843 3.8864 44.6655 3.62618 44.6513 3.54062H42.7578C42.7719 3.75926 42.7848 4.00998 42.7966 4.29279C42.8084 4.57559 42.8143 4.9285 42.8143 5.35152V11.2548H44.7997ZM50.3902 11.3831C51.0167 11.3831 51.5749 11.3023 52.0648 11.1407V9.90015C51.7774 9.96669 51.556 9.99996 51.4006 9.99996C51.1038 9.99996 50.8848 9.91084 50.7435 9.7326C50.6022 9.55436 50.5315 9.2775 50.5315 8.90201V4.89523H51.98V3.54062H50.5315V1.72973H49.288L48.6662 3.54062H47.5993V4.89523H48.5673V9.44386C48.5673 10.095 48.7251 10.581 49.0407 10.9018C49.3563 11.2227 49.8061 11.3831 50.3902 11.3831ZM55.2247 2.15037V0.674561H53.2393V2.15037H55.2247ZM55.2247 11.2548V3.54062H53.2393V11.2548H55.2247ZM59.2325 11.2548V7.11964C59.2325 6.46847 59.3797 5.93495 59.6741 5.51906C59.9685 5.10317 60.3559 4.89523 60.8364 4.89523C61.7455 4.89523 62.2001 5.57253 62.2001 6.92714V11.2548H64.1784V6.35678C64.1784 5.38717 63.9617 4.65045 63.5284 4.14663C63.095 3.64281 62.4733 3.3909 61.6631 3.3909C61.1025 3.3909 60.6197 3.52399 60.2146 3.79016C59.8095 4.05632 59.4727 4.48409 59.2042 5.07347H59.176C59.176 4.92612 59.1642 4.65639 59.1406 4.26427C59.1171 3.87215 59.0983 3.63093 59.0841 3.54062H57.1905C57.2047 3.74976 57.2176 3.98622 57.2294 4.25001C57.2412 4.5138 57.2471 4.85245 57.2471 5.26596V11.2548H59.2325ZM69.451 11.3973C70.6662 11.3973 71.6177 11.0421 72.3055 10.3315C72.9932 9.62091 73.337 8.6406 73.337 7.39056C73.337 6.10249 73.0085 5.11506 72.3514 4.42825C71.6943 3.74144 70.7416 3.39803 69.4934 3.39803C68.2734 3.39803 67.3242 3.75332 66.6459 4.46389C65.9676 5.17447 65.6285 6.15002 65.6285 7.39056C65.6285 8.63585 65.9676 9.61497 66.6459 10.3279C67.3242 11.0409 68.2592 11.3973 69.451 11.3973ZM69.4298 10.0285C68.8739 10.0285 68.4488 9.8039 68.1544 9.35474C67.86 8.90558 67.7128 8.25085 67.7128 7.39056C67.7128 5.6462 68.3158 4.77403 69.5216 4.77403C70.0869 4.77403 70.5179 4.98078 70.8146 5.3943C71.1114 5.80781 71.2598 6.47323 71.2598 7.39056C71.2598 9.14917 70.6498 10.0285 69.4298 10.0285Z" fill="#04091E"/>
  <path opacity="0.595853" d="M42.3762 17.5456C42.5269 17.5456 42.6665 17.5213 42.795 17.4726C42.9235 17.424 43.0316 17.3592 43.1194 17.2782C43.2071 17.1971 43.28 17.1148 43.338 17.0313C43.3961 16.9478 43.4437 16.8611 43.4807 16.7714L43.0434 16.633C42.989 16.7701 42.9019 16.8861 42.7821 16.9808C42.6622 17.0756 42.5245 17.1229 42.3688 17.1229C42.1291 17.1229 41.9376 17.022 41.7943 16.82C41.6509 16.618 41.5793 16.3438 41.5793 15.9972C41.5793 15.6556 41.6503 15.3832 41.7924 15.18C41.9345 14.9768 42.1266 14.8752 42.3688 14.8752C42.6233 14.8752 42.8296 15.0185 42.9878 15.3053L43.4066 15.1669C43.3201 14.9649 43.1885 14.7954 43.0119 14.6582C42.8352 14.5211 42.6233 14.4525 42.3762 14.4525C41.9932 14.4525 41.6806 14.5915 41.4384 14.8695C41.1963 15.1476 41.0752 15.5234 41.0752 15.9972C41.0752 16.4784 41.1981 16.8568 41.444 17.1323C41.6899 17.4078 42.0006 17.5456 42.3762 17.5456ZM44.6854 17.5456C44.8336 17.5456 44.9664 17.5206 45.0838 17.4708C45.2012 17.4209 45.2957 17.3567 45.3674 17.2782C45.439 17.1996 45.4983 17.1086 45.5453 17.0051C45.5922 16.9017 45.625 16.8 45.6435 16.7003C45.662 16.6006 45.6713 16.5008 45.6713 16.4011C45.6713 16.0795 45.5873 15.8077 45.4193 15.5858C45.2512 15.3639 45.0066 15.2529 44.6854 15.2529C44.3617 15.2529 44.1158 15.3639 43.9478 15.5858C43.7797 15.8077 43.6957 16.0795 43.6957 16.4011C43.6957 16.5058 43.705 16.6087 43.7235 16.7097C43.7421 16.8106 43.7754 16.9129 43.8236 17.0163C43.8718 17.1198 43.9323 17.2096 44.0052 17.2856C44.0781 17.3617 44.1732 17.424 44.2906 17.4726C44.408 17.5213 44.5396 17.5456 44.6854 17.5456ZM44.6854 17.1416C44.5495 17.1416 44.4309 17.0806 44.3295 16.9584C44.2282 16.8362 44.1776 16.6504 44.1776 16.4011C44.1776 16.1468 44.2288 15.9592 44.3314 15.8382C44.4339 15.7173 44.5519 15.6568 44.6854 15.6568C44.8188 15.6568 44.9362 15.7173 45.0375 15.8382C45.1388 15.9592 45.1895 16.1468 45.1895 16.4011C45.1895 16.6504 45.1388 16.8362 45.0375 16.9584C44.9362 17.0806 44.8188 17.1416 44.6854 17.1416ZM46.5646 17.4782V14.4226H46.0976V17.4782H46.5646ZM47.9805 17.5456C48.1287 17.5456 48.2616 17.5206 48.3789 17.4708C48.4963 17.4209 48.5908 17.3567 48.6625 17.2782C48.7341 17.1996 48.7935 17.1086 48.8404 17.0051C48.8874 16.9017 48.9201 16.8 48.9386 16.7003C48.9572 16.6006 48.9664 16.5008 48.9664 16.4011C48.9664 16.0795 48.8824 15.8077 48.7144 15.5858C48.5463 15.3639 48.3017 15.2529 47.9805 15.2529C47.6568 15.2529 47.4109 15.3639 47.2429 15.5858C47.0749 15.8077 46.9908 16.0795 46.9908 16.4011C46.9908 16.5058 47.0001 16.6087 47.0186 16.7097C47.0372 16.8106 47.0705 16.9129 47.1187 17.0163C47.1669 17.1198 47.2274 17.2096 47.3003 17.2856C47.3732 17.3617 47.4684 17.424 47.5857 17.4726C47.7031 17.5213 47.8347 17.5456 47.9805 17.5456ZM47.9805 17.1416C47.8446 17.1416 47.726 17.0806 47.6247 16.9584C47.5233 16.8362 47.4727 16.6504 47.4727 16.4011C47.4727 16.1468 47.524 15.9592 47.6265 15.8382C47.7291 15.7173 47.847 15.6568 47.9805 15.6568C48.1139 15.6568 48.2313 15.7173 48.3326 15.8382C48.4339 15.9592 48.4846 16.1468 48.4846 16.4011C48.4846 16.6504 48.4339 16.8362 48.3326 16.9584C48.2313 17.0806 48.1139 17.1416 47.9805 17.1416ZM49.8226 17.4782V16.3787C49.8226 16.1692 49.8653 16.0015 49.9505 15.8756C50.0358 15.7497 50.1587 15.6868 50.3193 15.6868C50.4107 15.6868 50.5034 15.7017 50.5973 15.7316V15.3015C50.5256 15.2691 50.433 15.2529 50.3193 15.2529C50.1982 15.2529 50.0938 15.2828 50.0061 15.3427C49.9184 15.4025 49.8511 15.4723 49.8041 15.5521V15.3202H49.3519V17.4782H49.8226ZM51.6092 17.5456C51.8785 17.5456 52.0867 17.4839 52.2337 17.3604C52.3808 17.237 52.4543 17.0868 52.4543 16.9098C52.4543 16.623 52.2344 16.4086 51.7945 16.2665C51.7822 16.2615 51.7624 16.2552 51.7352 16.2478C51.6314 16.2129 51.5511 16.1842 51.4943 16.1617C51.4375 16.1393 51.3825 16.1038 51.3293 16.0551C51.2762 16.0065 51.2497 15.951 51.2497 15.8887C51.2497 15.8139 51.2799 15.7534 51.3405 15.7073C51.401 15.6612 51.4881 15.6381 51.6018 15.6381C51.8093 15.6381 51.986 15.7391 52.1318 15.9411L52.4432 15.7503C52.3666 15.6057 52.2504 15.4867 52.0947 15.3932C51.9391 15.2997 51.7735 15.2529 51.5981 15.2529C51.3633 15.2529 51.1669 15.3103 51.0087 15.4249C50.8506 15.5396 50.7715 15.6917 50.7715 15.8812C50.7715 15.9785 50.7888 16.0639 50.8234 16.1374C50.858 16.211 50.9087 16.2721 50.9754 16.3207C51.0421 16.3693 51.1057 16.408 51.1663 16.4366C51.2268 16.4653 51.3015 16.4946 51.3905 16.5245C51.4004 16.527 51.4164 16.532 51.4387 16.5395C51.5622 16.5794 51.6549 16.6112 51.7167 16.6349C51.7785 16.6585 51.8371 16.6941 51.8927 16.7415C51.9483 16.7888 51.9761 16.8437 51.9761 16.906C51.9761 16.9833 51.9422 17.045 51.8742 17.0911C51.8063 17.1373 51.7142 17.1603 51.5981 17.1603C51.3609 17.1603 51.1681 17.0506 51.0198 16.8312L50.6826 17.0294C50.769 17.189 50.8932 17.3149 51.0551 17.4072C51.2169 17.4994 51.4016 17.5456 51.6092 17.5456ZM54.6152 17.5456C54.7635 17.5456 54.8963 17.5206 55.0136 17.4708C55.131 17.4209 55.2255 17.3567 55.2972 17.2782C55.3689 17.1996 55.4282 17.1086 55.4751 17.0051C55.5221 16.9017 55.5548 16.8 55.5733 16.7003C55.5919 16.6006 55.6011 16.5008 55.6011 16.4011C55.6011 16.0795 55.5171 15.8077 55.3491 15.5858C55.1811 15.3639 54.9364 15.2529 54.6152 15.2529C54.2915 15.2529 54.0456 15.3639 53.8776 15.5858C53.7096 15.8077 53.6255 16.0795 53.6255 16.4011C53.6255 16.5058 53.6348 16.6087 53.6533 16.7097C53.6719 16.8106 53.7052 16.9129 53.7534 17.0163C53.8016 17.1198 53.8621 17.2096 53.935 17.2856C54.0079 17.3617 54.1031 17.424 54.2204 17.4726C54.3378 17.5213 54.4694 17.5456 54.6152 17.5456ZM54.6152 17.1416C54.4793 17.1416 54.3607 17.0806 54.2594 16.9584C54.1581 16.8362 54.1074 16.6504 54.1074 16.4011C54.1074 16.1468 54.1587 15.9592 54.2612 15.8382C54.3638 15.7173 54.4818 15.6568 54.6152 15.6568C54.7486 15.6568 54.866 15.7173 54.9673 15.8382C55.0686 15.9592 55.1193 16.1468 55.1193 16.4011C55.1193 16.6504 55.0686 16.8362 54.9673 16.9584C54.866 17.0806 54.7486 17.1416 54.6152 17.1416ZM56.6204 17.4782V15.7242H57.0652V15.3202H56.6204V15.122C56.6204 15.0173 56.6383 14.9412 56.6742 14.8939C56.71 14.8465 56.7662 14.8228 56.8428 14.8228H57.1134V14.4226H56.7761C56.576 14.4226 56.4209 14.4781 56.3109 14.589C56.201 14.7 56.146 14.8664 56.146 15.0883V15.3202H55.8198V15.7242H56.146V17.4782H56.6204ZM58.4329 18.3609C58.6183 18.3609 58.7733 18.316 58.8981 18.2263C59.0229 18.1365 59.1248 17.9819 59.2039 17.7625L60.0898 15.3202H59.5783L59.241 16.431C59.1619 16.7178 59.1162 16.8836 59.1038 16.9285H59.089C59.0569 16.8013 59.0099 16.6355 58.9481 16.431L58.5812 15.3202H58.066L58.8666 17.4259L58.7962 17.6391C58.7542 17.7588 58.698 17.8429 58.6275 17.8915C58.5571 17.9401 58.4663 17.9645 58.3551 17.9645H58.2884V18.3609H58.4329ZM61.2388 17.5456C61.387 17.5456 61.5199 17.5206 61.6372 17.4708C61.7546 17.4209 61.8491 17.3567 61.9208 17.2782C61.9925 17.1996 62.0518 17.1086 62.0987 17.0051C62.1457 16.9017 62.1784 16.8 62.1969 16.7003C62.2155 16.6006 62.2247 16.5008 62.2247 16.4011C62.2247 16.0795 62.1407 15.8077 61.9727 15.5858C61.8047 15.3639 61.56 15.2529 61.2388 15.2529C60.9151 15.2529 60.6692 15.3639 60.5012 15.5858C60.3332 15.8077 60.2491 16.0795 60.2491 16.4011C60.2491 16.5058 60.2584 16.6087 60.2769 16.7097C60.2955 16.8106 60.3288 16.9129 60.377 17.0163C60.4252 17.1198 60.4857 17.2096 60.5586 17.2856C60.6315 17.3617 60.7267 17.424 60.844 17.4726C60.9614 17.5213 61.093 17.5456 61.2388 17.5456ZM61.2388 17.1416C61.1029 17.1416 60.9843 17.0806 60.883 16.9584C60.7816 16.8362 60.731 16.6504 60.731 16.4011C60.731 16.1468 60.7823 15.9592 60.8848 15.8382C60.9874 15.7173 61.1054 15.6568 61.2388 15.6568C61.3722 15.6568 61.4896 15.7173 61.5909 15.8382C61.6922 15.9592 61.7429 16.1468 61.7429 16.4011C61.7429 16.6504 61.6922 16.8362 61.5909 16.9584C61.4896 17.0806 61.3722 17.1416 61.2388 17.1416ZM63.3033 17.5456C63.4491 17.5456 63.5708 17.5119 63.6684 17.4446C63.766 17.3773 63.8321 17.305 63.8667 17.2277H63.8704V17.4782H64.3226V15.3202H63.8556V16.5283C63.8556 16.6953 63.8161 16.8393 63.737 16.9602C63.6579 17.0812 63.548 17.1416 63.4071 17.1416C63.1724 17.1416 63.055 16.9733 63.055 16.6367V15.3202H62.5843V16.6966C62.5843 16.8586 62.6065 16.9983 62.651 17.1155C62.6955 17.2326 62.7548 17.3205 62.8289 17.3791C62.903 17.4377 62.979 17.4801 63.0568 17.5063C63.1347 17.5325 63.2168 17.5456 63.3033 17.5456ZM65.3049 17.4782V16.3787C65.3049 16.1692 65.3475 16.0015 65.4327 15.8756C65.518 15.7497 65.6409 15.6868 65.8015 15.6868C65.893 15.6868 65.9856 15.7017 66.0795 15.7316V15.3015C66.0079 15.2691 65.9152 15.2529 65.8015 15.2529C65.6805 15.2529 65.5761 15.2828 65.4883 15.3427C65.4006 15.4025 65.3333 15.4723 65.2863 15.5521V15.3202H64.8341V17.4782H65.3049ZM67.7586 17.4782V14.4226H67.2916V17.4782H67.7586ZM68.8372 14.9986V14.4787H68.3331V14.9986H68.8372ZM68.8187 17.4782V15.3202H68.3553V17.4782H68.8187ZM70.0085 17.4782V15.7242H70.4533V15.3202H70.0085V15.122C70.0085 15.0173 70.0264 14.9412 70.0622 14.8939C70.098 14.8465 70.1543 14.8228 70.2309 14.8228H70.5014V14.4226H70.1641C69.964 14.4226 69.8089 14.4781 69.699 14.589C69.589 14.7 69.534 14.8664 69.534 15.0883V15.3202H69.2079V15.7242H69.534V17.4782H70.0085ZM71.6505 17.5456C71.8827 17.5456 72.0767 17.492 72.2324 17.3847C72.3881 17.2775 72.5005 17.1441 72.5697 16.9846L72.1768 16.8499C72.1298 16.9422 72.0613 17.0176 71.9711 17.0762C71.8809 17.1348 71.7765 17.1641 71.6579 17.1641C71.4874 17.1641 71.3533 17.1049 71.2557 16.9864C71.1581 16.868 71.1093 16.7265 71.1093 16.5619H72.5919C72.5993 16.4996 72.603 16.436 72.603 16.3712C72.603 16.0396 72.5116 15.7703 72.3288 15.5633C72.1459 15.3564 71.9136 15.2529 71.6319 15.2529C71.3453 15.2529 71.1075 15.3558 70.9184 15.5615C70.7294 15.7672 70.6349 16.0433 70.6349 16.3899C70.6349 16.7415 70.7294 17.022 70.9184 17.2314C71.1075 17.4408 71.3515 17.5456 71.6505 17.5456ZM72.1249 16.2291H71.1167C71.1192 16.0695 71.1668 15.9305 71.2594 15.812C71.3521 15.6936 71.4763 15.6344 71.6319 15.6344C71.7876 15.6344 71.9087 15.6924 71.9952 15.8083C72.0817 15.9242 72.1249 16.0645 72.1249 16.2291Z" fill="#04091E"/>
  <path d="M5.12174 2.42054L5.12174 17.3159C5.12167 17.4584 5.04892 17.5903 4.93046 17.6626C4.812 17.7349 4.66551 17.7369 4.5453 17.6677L1.05172 15.6549C0.928408 15.5839 0.851879 15.4492 0.851807 15.303L0.851807 0.407656C0.851877 0.265104 0.924633 0.133221 1.04309 0.060915C1.16155 -0.0113907 1.30804 -0.0133343 1.42825 0.0558033L4.92183 2.06869C5.04514 2.13961 5.12167 2.27431 5.12174 2.42054Z" fill="#04091E"/>
  <path d="M10.8139 2.42054L10.8139 17.3159C10.8138 17.4584 10.7411 17.5903 10.6226 17.6626C10.5041 17.7349 10.3576 17.7369 10.2374 17.6677L6.74386 15.6549C6.62055 15.5839 6.54402 15.4492 6.54395 15.303L6.54395 0.407656C6.54402 0.265104 6.61677 0.133221 6.73523 0.060915C6.85369 -0.0113907 7.00018 -0.0133343 7.12039 0.0558033L10.614 2.06869C10.7373 2.13961 10.8138 2.27431 10.8139 2.42054Z" fill="#04091E"/>
  <path d="M16.506 2.42054V17.3159C16.506 17.4584 16.4332 17.5903 16.3147 17.6626C16.1963 17.7349 16.0498 17.7369 15.9296 17.6677L12.436 15.6549C12.3127 15.5839 12.2362 15.4492 12.2361 15.303L12.2361 0.407656C12.2362 0.265104 12.3089 0.133221 12.4274 0.060915C12.5458 -0.0113907 12.6923 -0.0133343 12.8125 0.0558033L16.3061 2.06869C16.4294 2.13961 16.5059 2.27431 16.506 2.42054Z" fill="#04091E"/>
</svg>
