<svg id='slide3' width="76" height="18" viewBox="0 0 76 18" fill="none" xmlns="http://www.w3.org/2000/svg">
  <path d="M26.5936 11.8816C28.7583 11.8816 30.1957 10.8681 30.1957 9.1207C30.1957 7.36697 28.7675 6.81814 27.3964 6.40539L27.2385 6.3583C26.0315 6.00104 24.9138 5.71809 24.9138 4.76958C24.9138 4.01819 25.5199 3.54638 26.5763 3.54638C27.4942 3.54638 28.1522 3.93082 28.4466 4.75211L29.8494 4.19293C29.4511 2.96973 28.2561 2.28823 26.5936 2.28823C24.5848 2.28823 23.286 3.26679 23.286 4.85696C23.286 8.01981 28.5332 7.02378 28.5332 9.24302C28.5332 10.0993 27.7886 10.5885 26.6456 10.5885C25.3814 10.5885 24.5328 10.0294 24.2384 9.08575L22.8357 9.64493C23.3206 11.1128 24.706 11.8816 26.5936 11.8816ZM40.0784 14.8173V2.48044H38.7103V4.19293C37.9829 3.00467 36.7707 2.28823 35.2467 2.28823C32.6491 2.28823 30.7961 4.3502 30.7961 7.09367C30.7961 9.83715 32.701 11.8816 35.2814 11.8816C36.7187 11.8816 37.879 11.2351 38.6063 10.1692V14.8173H40.0784ZM35.4545 10.5711C33.6189 10.5711 32.2508 9.08575 32.2508 7.09367C32.2508 5.08412 33.6189 3.5988 35.4545 3.5988C37.3422 3.5988 38.6583 5.04917 38.6583 7.09367C38.6583 9.13817 37.3595 10.5711 35.4545 10.5711ZM45.4757 11.8816C46.8265 11.8816 47.9175 11.2351 48.5236 10.3789V11.6894H49.9264V2.48044H48.4544V8.26446C48.437 9.43524 47.398 10.5536 45.8567 10.5536C44.2981 10.5711 43.311 9.54008 43.311 7.98487V2.48044H41.839V8.15961C41.839 10.3439 43.1378 11.8816 45.4757 11.8816ZM55.722 11.8816C57.2633 11.8816 58.4582 11.1477 59.1509 9.92452V11.6894H60.519V2.48044H59.1509V4.26283C58.4582 3.07457 57.2633 2.3756 55.722 2.3756C53.1417 2.3756 51.2367 4.3502 51.2367 7.0762C51.2367 9.83715 53.1244 11.8816 55.722 11.8816ZM55.8952 10.5711C54.0595 10.5711 52.6914 9.08575 52.6914 7.0762C52.6914 5.1016 54.0595 3.5988 55.8952 3.5988C57.8001 3.5988 59.099 5.0317 59.099 7.0762C59.099 9.13817 57.7828 10.5711 55.8952 10.5711ZM63.8729 11.6894V6.13258C63.8729 4.82201 65.0332 3.68617 66.6957 3.6687V2.28823C65.4142 2.28823 64.3751 2.96973 63.7863 3.82597V2.48044H62.4009V11.6894H63.8729ZM71.2791 11.8991C73.4438 11.8991 74.708 10.9555 75.3834 9.64493L74.1019 8.85858C73.6516 9.92452 72.8204 10.5012 71.331 10.5012C69.6512 10.5012 68.3178 9.34787 68.058 7.63538H75.6431C75.6605 7.46064 75.6778 7.1461 75.6778 6.88398C75.6778 4.45505 73.9287 2.27075 71.1752 2.27075C68.5948 2.27075 66.5687 4.4201 66.5687 7.09367C66.5687 9.83715 68.4736 11.8991 71.2791 11.8991ZM74.1711 6.34228H68.0753C68.3524 4.59484 69.6859 3.56385 71.2271 3.56385C72.7511 3.56385 73.946 4.61232 74.1711 6.34228Z" fill="#04091E"/>
  <path d="M44.0031 17.3126C44.0505 17.3126 44.1005 17.3095 44.1533 17.3034C44.2061 17.2973 44.2636 17.288 44.3258 17.2758V17.116H44.2893C44.1174 17.116 43.995 17.0952 43.9219 17.0536C43.8489 17.0119 43.7914 16.9338 43.7494 16.8191C43.7305 16.7713 43.7048 16.6747 43.6723 16.5293C43.6398 16.3839 43.6006 16.2737 43.5546 16.1986C43.514 16.1304 43.4586 16.0734 43.3882 16.0276C43.3178 15.9819 43.2306 15.9447 43.1264 15.916C43.3496 15.8669 43.5174 15.7839 43.6297 15.6672C43.742 15.5505 43.7981 15.4014 43.7981 15.2198C43.7981 14.9645 43.7163 14.7751 43.5526 14.6515C43.3889 14.528 43.1372 14.4662 42.7976 14.4662H41.7383V14.6341L41.9737 14.6587L42.0447 14.7181V17.028L41.9737 17.0874L41.7383 17.1078V17.2798H42.7266V17.1078L42.4892 17.0874L42.4181 17.028V16.0307L42.4323 16.0287C42.5216 16.0246 42.5866 16.0225 42.6272 16.0225C42.8179 16.0225 42.9603 16.0553 43.0544 16.1208C43.1484 16.1863 43.2231 16.3044 43.2786 16.4751C43.2935 16.5201 43.3131 16.5884 43.3375 16.6798C43.4024 16.9338 43.4843 17.1044 43.583 17.1918C43.6304 17.2327 43.6882 17.2631 43.7565 17.2829C43.8249 17.3027 43.9071 17.3126 44.0031 17.3126ZM42.6475 15.8321C42.6123 15.8321 42.5758 15.8317 42.5379 15.831C42.5 15.8304 42.4601 15.8293 42.4181 15.828V14.6587H42.619C42.8883 14.6587 43.0831 14.7058 43.2035 14.8C43.3239 14.8942 43.3841 15.0457 43.3841 15.2546C43.3841 15.4566 43.3256 15.6034 43.2086 15.6949C43.0916 15.7863 42.9045 15.8321 42.6475 15.8321ZM45.0782 17.3167C45.2121 17.3167 45.3454 17.2955 45.478 17.2532C45.6105 17.2109 45.7384 17.1488 45.8615 17.0669V16.8355C45.737 16.9188 45.6217 16.9802 45.5155 17.0198C45.4093 17.0594 45.3068 17.0792 45.208 17.0792C44.9943 17.0792 44.8245 17.0024 44.6987 16.8488C44.5728 16.6952 44.5099 16.4867 44.5099 16.2232V16.1761H45.8554C45.8581 16.1597 45.8598 16.1426 45.8605 16.1249C45.8612 16.1072 45.8615 16.0812 45.8615 16.0471C45.8615 15.7918 45.7942 15.5901 45.6596 15.442C45.525 15.2938 45.3427 15.2198 45.1127 15.2198C44.8312 15.2198 44.6009 15.3191 44.4216 15.5177C44.2424 15.7164 44.1527 15.9727 44.1527 16.2867C44.1527 16.5925 44.2383 16.8406 44.4095 17.031C44.5806 17.2215 44.8035 17.3167 45.0782 17.3167ZM45.4901 16H44.5302C44.5424 15.8293 44.5989 15.6884 44.6997 15.5771C44.8005 15.4659 44.9199 15.4102 45.0579 15.4102C45.1986 15.4102 45.3058 15.4553 45.3795 15.5454C45.4533 15.6355 45.4901 15.7652 45.4901 15.9345V16ZM46.6078 17.3085C46.7052 17.3085 46.8097 17.2863 46.9213 17.242C47.033 17.1976 47.1557 17.129 47.2897 17.0362L47.3445 17.2798H47.929V17.1283L47.7098 17.1078L47.6387 17.0403V15.8239C47.6387 15.6123 47.5894 15.4587 47.4906 15.3631C47.3918 15.2676 47.2335 15.2198 47.0157 15.2198C46.7681 15.2198 46.5662 15.2648 46.4099 15.3549C46.2537 15.445 46.1755 15.5583 46.1755 15.6949C46.1755 15.744 46.1847 15.7778 46.2029 15.7962C46.2212 15.8147 46.2554 15.8239 46.3054 15.8239H46.5916V15.4717C46.647 15.4498 46.7005 15.4334 46.7519 15.4225C46.8033 15.4116 46.8554 15.4061 46.9082 15.4061C47.0489 15.4061 47.1476 15.4403 47.2045 15.5085C47.2613 15.5768 47.2897 15.699 47.2897 15.8751V16.0082C46.7715 16.1338 46.4397 16.2478 46.2943 16.3502C46.1488 16.4525 46.0761 16.5932 46.0761 16.772C46.0761 16.9331 46.1245 17.0628 46.2212 17.1611C46.3179 17.2594 46.4468 17.3085 46.6078 17.3085ZM46.7742 17.0833C46.6727 17.0833 46.5919 17.0522 46.5317 16.9901C46.4715 16.928 46.4414 16.8444 46.4414 16.7392C46.4414 16.6082 46.4958 16.5024 46.6048 16.4218C46.7137 16.3413 46.942 16.2525 47.2897 16.1556V16.8949C47.1801 16.9577 47.083 17.0048 46.9985 17.0362C46.9139 17.0676 46.8392 17.0833 46.7742 17.0833ZM48.9594 17.2798V17.1283L48.7219 17.1078L48.6468 17.0403V14.1938H48.4885L47.9812 14.3433V14.4744H48.3018V17.0403L48.2308 17.1078L47.9852 17.1283V17.2798H48.9594ZM52.1972 17.2798V16.5959H51.9821L51.9111 17.0198L51.8522 17.0874H50.7381V15.9119H51.42L51.4788 15.9754L51.5194 16.2785H51.7163V15.3549H51.5194L51.4788 15.6601L51.42 15.7194H50.7381V14.6587H51.7L51.7568 14.7222L51.8157 15.0785H52.0491V14.4662H50.0582V14.6341L50.2936 14.6587L50.3647 14.7181V17.028L50.2936 17.0874L50.0582 17.1078V17.2798H52.1972ZM52.8907 17.3167C53.1343 17.3167 53.3247 17.2611 53.462 17.1498C53.5993 17.0385 53.668 16.8846 53.668 16.688C53.668 16.613 53.6545 16.5444 53.6274 16.4822C53.6004 16.4201 53.5611 16.3686 53.5097 16.3276C53.4394 16.2689 53.3257 16.2034 53.1688 16.131C53.1241 16.1106 53.091 16.0949 53.0693 16.0839C52.9313 16.0171 52.838 15.9563 52.7893 15.9017C52.7406 15.8471 52.7162 15.7809 52.7162 15.7031C52.7162 15.6075 52.7467 15.5331 52.8075 15.4799C52.8684 15.4266 52.953 15.4 53.0612 15.4C53.1113 15.4 53.1613 15.4075 53.2114 15.4225C53.2615 15.4375 53.3142 15.4601 53.3697 15.4901L53.4022 15.787H53.6071V15.3119C53.5368 15.2819 53.4613 15.259 53.3808 15.2433C53.3003 15.2276 53.2134 15.2198 53.1201 15.2198C52.886 15.2198 52.7047 15.271 52.5762 15.3734C52.4477 15.4758 52.3834 15.6205 52.3834 15.8075C52.3834 15.9304 52.4209 16.0334 52.496 16.1167C52.5711 16.2 52.7128 16.2887 52.9212 16.3829C53.1052 16.4676 53.2215 16.5375 53.2702 16.5928C53.319 16.6481 53.3433 16.7181 53.3433 16.8027C53.3433 16.9037 53.3078 16.9853 53.2368 17.0474C53.1657 17.1095 53.0714 17.1406 52.9537 17.1406C52.8941 17.1406 52.8349 17.1324 52.7761 17.116C52.7172 17.0996 52.6587 17.0744 52.6005 17.0403L52.5498 16.6839H52.3509V17.2287C52.428 17.2587 52.5123 17.2809 52.6036 17.2952C52.6949 17.3095 52.7906 17.3167 52.8907 17.3167ZM54.4975 17.2921C54.5827 17.2921 54.6714 17.2843 54.7634 17.2686C54.8554 17.2529 54.9487 17.23 55.0434 17.2V17.0444C54.992 17.0566 54.9423 17.0655 54.8943 17.071C54.8462 17.0764 54.7999 17.0792 54.7552 17.0792C54.6254 17.0792 54.5354 17.0481 54.4853 16.986C54.4353 16.9239 54.4102 16.802 54.4102 16.6205V15.5147H55.0434V15.3181H54.4102V14.8717H54.256L54.0774 15.2628L53.8034 15.3836V15.5147H54.0652V16.8682C54.0652 17.0293 54.0974 17.1403 54.1616 17.201C54.2259 17.2618 54.3379 17.2921 54.4975 17.2921ZM55.6558 17.3085C55.7532 17.3085 55.8577 17.2863 55.9693 17.242C56.0809 17.1976 56.2037 17.129 56.3376 17.0362L56.3924 17.2798H56.9769V17.1283L56.7577 17.1078L56.6867 17.0403V15.8239C56.6867 15.6123 56.6373 15.4587 56.5386 15.3631C56.4398 15.2676 56.2815 15.2198 56.0637 15.2198C55.8161 15.2198 55.6142 15.2648 55.4579 15.3549C55.3016 15.445 55.2235 15.5583 55.2235 15.6949C55.2235 15.744 55.2326 15.7778 55.2509 15.7962C55.2692 15.8147 55.3033 15.8239 55.3534 15.8239H55.6395V15.4717C55.695 15.4498 55.7484 15.4334 55.7998 15.4225C55.8513 15.4116 55.9033 15.4061 55.9561 15.4061C56.0968 15.4061 56.1956 15.4403 56.2524 15.5085C56.3092 15.5768 56.3376 15.699 56.3376 15.8751V16.0082C55.8195 16.1338 55.4877 16.2478 55.3422 16.3502C55.1968 16.4525 55.1241 16.5932 55.1241 16.772C55.1241 16.9331 55.1724 17.0628 55.2692 17.1611C55.3659 17.2594 55.4948 17.3085 55.6558 17.3085ZM55.8222 17.0833C55.7207 17.0833 55.6399 17.0522 55.5797 16.9901C55.5195 16.928 55.4893 16.8444 55.4893 16.7392C55.4893 16.6082 55.5438 16.5024 55.6527 16.4218C55.7616 16.3413 55.9899 16.2525 56.3376 16.1556V16.8949C56.2281 16.9577 56.131 17.0048 56.0464 17.0362C55.9619 17.0676 55.8871 17.0833 55.8222 17.0833ZM57.7151 17.2921C57.8003 17.2921 57.8889 17.2843 57.9809 17.2686C58.0729 17.2529 58.1663 17.23 58.261 17.2V17.0444C58.2096 17.0566 58.1599 17.0655 58.1118 17.071C58.0638 17.0764 58.0175 17.0792 57.9728 17.0792C57.8429 17.0792 57.753 17.0481 57.7029 16.986C57.6528 16.9239 57.6278 16.802 57.6278 16.6205V15.5147H58.261V15.3181H57.6278V14.8717H57.4736L57.295 15.2628L57.021 15.3836V15.5147H57.2828V16.8682C57.2828 17.0293 57.3149 17.1403 57.3792 17.201C57.4435 17.2618 57.5554 17.2921 57.7151 17.2921ZM59.2467 17.3167C59.3807 17.3167 59.514 17.2955 59.6465 17.2532C59.7791 17.2109 59.907 17.1488 60.0301 17.0669V16.8355C59.9056 16.9188 59.7903 16.9802 59.6841 17.0198C59.5779 17.0594 59.4754 17.0792 59.3766 17.0792C59.1629 17.0792 58.9931 17.0024 58.8672 16.8488C58.7414 16.6952 58.6785 16.4867 58.6785 16.2232V16.1761H60.024C60.0267 16.1597 60.0284 16.1426 60.0291 16.1249C60.0298 16.1072 60.0301 16.0812 60.0301 16.0471C60.0301 15.7918 59.9628 15.5901 59.8282 15.442C59.6936 15.2938 59.5112 15.2198 59.2812 15.2198C58.9998 15.2198 58.7695 15.3191 58.5902 15.5177C58.411 15.7164 58.3213 15.9727 58.3213 16.2867C58.3213 16.5925 58.4069 16.8406 58.5781 17.031C58.7492 17.2215 58.9721 17.3167 59.2467 17.3167ZM59.6587 16H58.6988C58.711 15.8293 58.7675 15.6884 58.8683 15.5771C58.9691 15.4659 59.0885 15.4102 59.2265 15.4102C59.3672 15.4102 59.4744 15.4553 59.5481 15.5454C59.6219 15.6355 59.6587 15.7652 59.6587 15.9345V16ZM62.0848 17.331C62.4095 17.331 62.67 17.2536 62.8661 17.0986C63.0623 16.9437 63.1604 16.7399 63.1604 16.4874C63.1604 16.3959 63.1452 16.3112 63.1147 16.2334C63.0843 16.1556 63.0386 16.0867 62.9778 16.0266C62.8709 15.9201 62.6964 15.8191 62.4542 15.7235C62.4082 15.7058 62.3737 15.6921 62.3507 15.6826C62.1044 15.5775 61.9458 15.4877 61.8748 15.4133C61.8037 15.3389 61.7682 15.245 61.7682 15.1317C61.7682 14.9761 61.819 14.8529 61.9204 14.7621C62.0219 14.6713 62.1592 14.6259 62.3324 14.6259C62.4055 14.6259 62.4731 14.6331 62.5354 14.6474C62.5976 14.6618 62.6551 14.6839 62.7079 14.714L62.7687 14.7836L62.8316 15.1829H63.0488V14.5338C62.927 14.4942 62.8076 14.4645 62.6906 14.4447C62.5736 14.4249 62.4569 14.415 62.3405 14.415C62.051 14.415 61.8186 14.4891 61.6434 14.6372C61.4682 14.7853 61.3806 14.9795 61.3806 15.2198C61.3806 15.3904 61.4266 15.5293 61.5186 15.6365C61.6106 15.7437 61.7987 15.8594 62.0828 15.9836C62.1058 15.9932 62.1389 16.0075 62.1822 16.0266C62.58 16.1973 62.7789 16.3897 62.7789 16.6041C62.7789 16.7583 62.7224 16.8809 62.6094 16.9717C62.4965 17.0624 62.3432 17.1078 62.1498 17.1078C62.0578 17.1078 61.9725 17.0996 61.8941 17.0833C61.8156 17.0669 61.7459 17.043 61.685 17.0116L61.6302 16.9399L61.5815 16.4587H61.336V17.1959C61.4347 17.2396 61.548 17.273 61.6759 17.2962C61.8037 17.3194 61.9401 17.331 62.0848 17.331ZM64.3775 17.3167C64.6589 17.3167 64.8906 17.2188 65.0726 17.0229C65.2546 16.8269 65.3456 16.5754 65.3456 16.2682C65.3456 15.9611 65.2549 15.7095 65.0736 15.5136C64.8923 15.3177 64.6603 15.2198 64.3775 15.2198C64.0934 15.2198 63.8617 15.3174 63.6825 15.5126C63.5032 15.7078 63.4136 15.9597 63.4136 16.2682C63.4136 16.5768 63.5039 16.8287 63.6845 17.0239C63.8651 17.2191 64.0961 17.3167 64.3775 17.3167ZM64.3775 17.1365C64.2057 17.1365 64.067 17.0577 63.9615 16.9C63.856 16.7423 63.8032 16.5317 63.8032 16.2682C63.8032 16.0048 63.8556 15.7942 63.9605 15.6365C64.0653 15.4788 64.2043 15.4 64.3775 15.4C64.5507 15.4 64.6904 15.4792 64.7966 15.6375C64.9028 15.7959 64.9559 16.0061 64.9559 16.2682C64.9559 16.5331 64.9031 16.744 64.7976 16.901C64.6921 17.058 64.5521 17.1365 64.3775 17.1365ZM66.451 17.2798V17.1283L66.2136 17.1078L66.1385 17.0403V14.1938H65.9802L65.4729 14.3433V14.4744H65.7935V17.0403L65.7225 17.1078L65.4769 17.1283V17.2798H66.451ZM67.3556 17.3208C67.4544 17.3208 67.5589 17.2983 67.6692 17.2532C67.7794 17.2082 67.8995 17.1385 68.0294 17.0444V17.2798H68.6443V17.1283L68.4495 17.1078L68.3744 17.0403V15.2198H68.2161L67.7331 15.3754V15.5065H68.0294V16.9276C67.9428 16.9699 67.8599 17.0013 67.7808 17.0218C67.7016 17.0423 67.6235 17.0525 67.5464 17.0525C67.4084 17.0525 67.3069 17.0167 67.242 16.945C67.177 16.8734 67.1446 16.7611 67.1446 16.6082V15.2198H66.9863L66.5033 15.3754V15.5065H66.7996V16.6798C66.7996 16.8874 66.8473 17.0461 66.9426 17.156C67.038 17.2659 67.1757 17.3208 67.3556 17.3208ZM69.419 17.2921C69.5042 17.2921 69.5929 17.2843 69.6849 17.2686C69.7769 17.2529 69.8702 17.23 69.9649 17.2V17.0444C69.9135 17.0566 69.8638 17.0655 69.8158 17.071C69.7677 17.0764 69.7214 17.0792 69.6767 17.0792C69.5469 17.0792 69.4569 17.0481 69.4068 16.986C69.3568 16.9239 69.3317 16.802 69.3317 16.6205V15.5147H69.9649V15.3181H69.3317V14.8717H69.1775L68.9989 15.2628L68.7249 15.3836V15.5147H68.9867V16.8682C68.9867 17.0293 69.0189 17.1403 69.0831 17.201C69.1474 17.2618 69.2594 17.2921 69.419 17.2921ZM70.5103 14.7938C70.5779 14.7938 70.6351 14.7706 70.6818 14.7242C70.7285 14.6778 70.7518 14.6212 70.7518 14.5543C70.7518 14.4874 70.7285 14.43 70.6818 14.3822C70.6351 14.3345 70.5779 14.3106 70.5103 14.3106C70.444 14.3106 70.3875 14.3341 70.3408 14.3812C70.2942 14.4283 70.2708 14.486 70.2708 14.5543C70.2708 14.6212 70.2942 14.6778 70.3408 14.7242C70.3875 14.7706 70.444 14.7938 70.5103 14.7938ZM70.9507 17.2798V17.1283L70.7274 17.1078L70.6564 17.0403V15.2423H70.4941L70.0171 15.3918V15.5229H70.3073V17.0403L70.2363 17.1078L70.0171 17.1283V17.2798H70.9507ZM72.0136 17.3167C72.295 17.3167 72.5267 17.2188 72.7086 17.0229C72.8906 16.8269 72.9816 16.5754 72.9816 16.2682C72.9816 15.9611 72.8909 15.7095 72.7096 15.5136C72.5283 15.3177 72.2963 15.2198 72.0136 15.2198C71.7294 15.2198 71.4977 15.3174 71.3185 15.5126C71.1392 15.7078 71.0496 15.9597 71.0496 16.2682C71.0496 16.5768 71.1399 16.8287 71.3205 17.0239C71.5011 17.2191 71.7321 17.3167 72.0136 17.3167ZM72.0136 17.1365C71.8417 17.1365 71.7031 17.0577 71.5975 16.9C71.492 16.7423 71.4392 16.5317 71.4392 16.2682C71.4392 16.0048 71.4917 15.7942 71.5965 15.6365C71.7014 15.4788 71.8404 15.4 72.0136 15.4C72.1867 15.4 72.3264 15.4792 72.4326 15.6375C72.5388 15.7959 72.5919 16.0061 72.5919 16.2682C72.5919 16.5331 72.5392 16.744 72.4336 16.901C72.3281 17.058 72.1881 17.1365 72.0136 17.1365ZM74.0323 17.2798V17.1283L73.8334 17.1078L73.7624 17.0403V15.6355C73.8517 15.5891 73.9349 15.5546 74.012 15.5321C74.0891 15.5095 74.1608 15.4983 74.2271 15.4983C74.3786 15.4983 74.4865 15.531 74.5508 15.5966C74.6151 15.6621 74.6472 15.7734 74.6472 15.9304V17.0403L74.5762 17.1078L74.3773 17.1283V17.2798H75.2865V17.1283L75.0632 17.1078L74.9922 17.0403V15.8587C74.9922 15.6512 74.9442 15.4928 74.8481 15.3836C74.752 15.2744 74.6134 15.2198 74.4321 15.2198C74.355 15.2198 74.2657 15.2386 74.1642 15.2761C74.0627 15.3136 73.9288 15.3788 73.7624 15.4717V15.2423H73.6041L73.1211 15.3918V15.5229H73.4174V17.0403L73.3463 17.1078L73.1211 17.1283V17.2798H74.0323Z" fill="#04091E"/>
  <path fill-rule="evenodd" clip-rule="evenodd" d="M0.269775 0.504639H17.5875V17.979H0.269775V0.504639ZM13.1587 4.97326L4.6976 4.97235V13.5108L4.6948 13.5135L4.69488 13.5141H13.1626L13.1619 4.97023L13.1615 4.97015L13.1587 4.97326Z" fill="#04091E"/>
</svg>
