<svg id='slide1' width="60" height="15" viewBox="0 0 60 15" fill="none" xmlns="http://www.w3.org/2000/svg">
  <path d="M0.886475 13.4526C1.38951 13.4196 1.75208 13.3471 1.9742 13.235C2.36618 13.0307 2.56217 12.6582 2.56217 12.1177V2.1308C2.56217 1.61004 2.37598 1.24748 2.0036 1.04312C1.78802 0.924467 1.41564 0.842067 0.886475 0.795923V0.281747H7.02087C9.49685 0.281747 11.3849 0.947539 12.6849 2.27912C13.8674 3.49205 14.4586 5.12028 14.4586 7.1638C14.4586 8.99637 13.8641 10.5488 12.6751 11.821C11.3359 13.2515 9.51971 13.9667 7.22666 13.9667H0.886475V13.4526ZM5.80575 12.0979C5.82535 12.5132 5.90048 12.8131 6.03114 12.9977C6.16833 13.1823 6.45578 13.2746 6.89348 13.2746C8.08247 13.2746 9.05914 12.8527 9.82349 12.0089C10.5878 11.1586 10.97 9.53033 10.97 7.12425C10.97 5.69378 10.7642 4.46437 10.3527 3.43602C9.6863 1.78143 8.56264 0.954131 6.98168 0.954131C6.45904 0.954131 6.11933 1.0662 5.96254 1.29032C5.85802 1.43535 5.80575 1.71551 5.80575 2.1308V12.0979Z" fill="#04091E"/>
  <path d="M15.5561 9.32927C15.5561 7.91858 15.984 6.74191 16.8398 5.79925C17.7022 4.8566 18.7834 4.38527 20.0834 4.38527C21.4096 4.38527 22.4941 4.86648 23.3368 5.82892C24.1861 6.79135 24.6107 7.95813 24.6107 9.32927C24.6107 10.6806 24.1926 11.8441 23.3564 12.8197C22.5202 13.7888 21.4292 14.2733 20.0834 14.2733C18.7768 14.2733 17.6956 13.8019 16.8398 12.8593C15.984 11.91 15.5561 10.7334 15.5561 9.32927ZM18.5057 9.32927C18.5057 10.7466 18.5776 11.7386 18.7213 12.3056C18.95 13.1823 19.404 13.6207 20.0834 13.6207C20.7302 13.6207 21.1548 13.2845 21.3573 12.6121C21.5599 11.9397 21.6611 10.8454 21.6611 9.32927C21.6611 7.8197 21.5533 6.72872 21.3377 6.05634C21.1287 5.37736 20.7138 5.03788 20.0932 5.03788C19.4138 5.03788 18.9598 5.47624 18.7311 6.35298C18.5809 6.93967 18.5057 7.93177 18.5057 9.32927Z" fill="#04091E"/>
  <path d="M25.5123 13.4822C25.8977 13.4361 26.1656 13.3438 26.3158 13.2054C26.4661 13.0669 26.5477 12.8 26.5608 12.4044L26.5804 11.8112V6.30354C26.5804 5.88165 26.5085 5.5949 26.3648 5.44328C26.2211 5.29167 25.9369 5.18949 25.5123 5.13676V4.64236H29.3242V6.23432C29.7489 5.674 30.1702 5.22904 30.5883 4.89944C31.0064 4.56984 31.4899 4.40504 32.0386 4.40504C32.4502 4.40504 32.8193 4.54018 33.146 4.81045C33.4791 5.07413 33.6457 5.46306 33.6457 5.97724C33.6457 6.37276 33.5281 6.69906 33.293 6.95615C33.0643 7.21324 32.7638 7.34178 32.3914 7.34178C31.9668 7.34178 31.5977 7.14073 31.2841 6.73861C30.977 6.3365 30.7615 6.13544 30.6373 6.13544C30.3695 6.13544 30.0984 6.30354 29.824 6.63973C29.5561 6.96933 29.4222 7.44396 29.4222 8.06361V11.8903C29.4222 12.5626 29.5169 12.9845 29.7064 13.1559C29.9024 13.3207 30.2878 13.4295 30.8627 13.4822V13.9667H25.5123V13.4822Z" fill="#04091E"/>
  <path d="M34.3415 13.4822C34.7531 13.4493 35.047 13.357 35.2234 13.2054C35.4064 13.0538 35.4978 12.7373 35.4978 12.2561V5.67071H34.3415V4.78079H35.4978V4.0293C35.4978 3.08664 35.6448 2.31208 35.9388 1.70562C36.4941 0.571795 37.5198 0.00488281 39.0158 0.00488281C39.8128 0.00488281 40.4857 0.189459 41.0345 0.558611C41.5898 0.921171 41.8674 1.40239 41.8674 2.00226C41.8674 2.378 41.7498 2.68124 41.5146 2.91196C41.286 3.14268 40.9789 3.25804 40.5935 3.25804C40.2734 3.25804 39.999 3.15256 39.7703 2.94162C39.5417 2.73068 39.4274 2.47688 39.4274 2.18024C39.4274 1.95612 39.4992 1.7221 39.6429 1.4782C39.7932 1.2277 39.8683 1.07608 39.8683 1.02335C39.8683 0.858547 39.8095 0.753075 39.6919 0.706931C39.5743 0.660787 39.447 0.637715 39.3098 0.637715C38.9831 0.637715 38.7316 0.733299 38.5552 0.924467C38.3788 1.11564 38.2906 1.52764 38.2906 2.16047V4.78079H40.0349V5.67071H38.2906V11.8903C38.2906 12.589 38.3886 13.0175 38.5846 13.1757C38.7871 13.3339 39.2314 13.4361 39.9173 13.4822V13.9667H34.3415V13.4822Z" fill="#04091E"/>
  <path d="M44.8562 4.64236V11.5145C44.8562 11.9232 44.9052 12.2232 45.0032 12.4143C45.173 12.7505 45.5095 12.9186 46.0125 12.9186C46.3326 12.9186 46.6462 12.8164 46.9533 12.6121C47.1297 12.5 47.3518 12.3122 47.6196 12.0485V6.30354C47.6196 5.88165 47.5347 5.58831 47.3648 5.42351C47.2015 5.25212 46.8683 5.15653 46.3653 5.13676V4.64236H50.3634V11.9298C50.3634 12.3517 50.4418 12.645 50.5986 12.8098C50.7554 12.9681 51.0625 13.0669 51.5198 13.1065V13.5712C50.2785 13.6899 49.4946 13.7789 49.1679 13.8382C48.8478 13.8909 48.3317 14.0294 47.6196 14.2535V12.9186C47.1427 13.3339 46.7475 13.6273 46.4339 13.7986C45.8851 14.1019 45.3135 14.2535 44.719 14.2535C44.0723 14.2535 43.468 14.0458 42.9061 13.6306C42.3508 13.2153 42.0732 12.477 42.0732 11.4156V6.30354C42.0732 5.87506 42.0046 5.5949 41.8674 5.46306C41.7302 5.33122 41.4656 5.22245 41.0737 5.13676V4.64236H44.8562Z" fill="#04091E"/>
  <path d="M52.4311 10.9015H52.9897C53.1857 11.8705 53.5515 12.5561 54.0872 12.9582C54.6229 13.3537 55.1717 13.5514 55.7335 13.5514C56.2496 13.5514 56.6285 13.4361 56.8702 13.2054C57.1119 12.9681 57.2328 12.6582 57.2328 12.2759C57.2328 11.9133 57.1021 11.6035 56.8408 11.3464C56.6971 11.208 56.4652 11.0597 56.1451 10.9015L54.6556 10.1698C53.8716 9.78082 53.3098 9.35893 52.9701 8.90409C52.6238 8.44924 52.4507 7.91199 52.4507 7.29234C52.4507 6.50789 52.7218 5.83221 53.2641 5.2653C53.8063 4.6918 54.5641 4.40504 55.5375 4.40504C55.9621 4.40504 56.4129 4.47756 56.8898 4.62258C57.3667 4.76101 57.664 4.83023 57.7816 4.83023C57.9449 4.83023 58.0592 4.79727 58.1245 4.73135C58.1964 4.65884 58.2552 4.55996 58.3009 4.43471H58.7419V7.36156H58.2323C58.0429 6.67599 57.7326 6.12556 57.3014 5.71026C56.8702 5.29496 56.3672 5.08732 55.7923 5.08732C55.3481 5.08732 55.0149 5.21256 54.7928 5.46306C54.5772 5.71356 54.4694 5.98383 54.4694 6.27388C54.4694 6.51119 54.5674 6.7485 54.7634 6.98581C54.9528 7.22972 55.3121 7.48021 55.8413 7.7373L56.9388 8.27125C57.6182 8.60085 58.1147 8.92057 58.4283 9.23039C58.951 9.75775 59.2123 10.4071 59.2123 11.1783C59.2123 11.9298 58.9412 12.6319 58.3989 13.2845C57.8632 13.9305 57.0564 14.2535 55.9785 14.2535C55.7106 14.2535 55.4395 14.2238 55.1651 14.1645C54.8973 14.1118 54.5641 14.0162 54.1656 13.8778L53.8226 13.7591C53.6985 13.713 53.6201 13.6866 53.5874 13.68C53.5613 13.6734 53.5254 13.6701 53.4796 13.6701C53.3686 13.6701 53.2706 13.7162 53.1857 13.8085C53.1073 13.8942 53.0158 14.0426 52.9113 14.2535H52.4311V10.9015Z" fill="#04091E"/>
</svg>
