<svg id='slide4' width="119" height="28" viewBox="0 0 119 28" fill="none" xmlns="http://www.w3.org/2000/svg">
  <path d="M41.7889 17.6843C45.1541 17.6843 47.3886 16.1228 47.3886 13.4306C47.3886 10.7287 45.1683 9.88317 43.0368 9.24726L42.7914 9.17472C40.9149 8.62429 39.1774 8.18837 39.1774 6.72705C39.1774 5.5694 40.1197 4.8425 41.7619 4.8425C43.1888 4.8425 44.2118 5.43479 44.6695 6.70012L46.8502 5.83862C46.231 3.95408 44.3734 2.90412 41.7889 2.90412C38.6659 2.90412 36.6468 4.41175 36.6468 6.86166C36.6468 11.7345 44.8041 10.2 44.8041 13.6191C44.8041 14.9383 43.6465 15.6921 41.8696 15.6921C39.9043 15.6921 38.5851 14.8306 38.1275 13.3768L35.9468 14.2383C36.7006 16.4997 38.8544 17.6843 41.7889 17.6843ZM62.7521 22.2072V3.20026H60.6253V5.83862C59.4946 4.00792 57.61 2.90412 55.2409 2.90412C51.2026 2.90412 48.3219 6.08092 48.3219 10.3077C48.3219 14.5344 51.2834 17.6843 55.2947 17.6843C57.5293 17.6843 59.333 16.6882 60.4638 15.0459V22.2072H62.7521ZM55.564 15.6652C52.7102 15.6652 50.5834 13.3768 50.5834 10.3077C50.5834 7.21164 52.7102 4.92327 55.564 4.92327C58.4985 4.92327 60.5445 7.1578 60.5445 10.3077C60.5445 13.4576 58.5254 15.6652 55.564 15.6652ZM71.1428 17.6843C73.2427 17.6843 74.9388 16.6882 75.8811 15.369V17.3882H78.0618V3.20026H75.7734V12.1114C75.7465 13.9152 74.1312 15.6382 71.7351 15.6382C69.3121 15.6652 67.7776 14.0768 67.7776 11.6807V3.20026H65.4892V11.9499C65.4892 15.3152 67.5084 17.6843 71.1428 17.6843ZM87.0717 17.6843C89.4677 17.6843 91.3254 16.5536 92.4022 14.669V17.3882H94.5291V3.20026H92.4022V5.94631C91.3254 4.11561 89.4677 3.03873 87.0717 3.03873C83.0603 3.03873 80.0989 6.08092 80.0989 10.2808C80.0989 14.5344 83.0334 17.6843 87.0717 17.6843ZM87.3409 15.6652C84.4872 15.6652 82.3603 13.3768 82.3603 10.2808C82.3603 7.23856 84.4872 4.92327 87.3409 4.92327C90.3023 4.92327 92.3215 7.13088 92.3215 10.2808C92.3215 13.4576 90.2754 15.6652 87.3409 15.6652ZM99.743 17.3882V8.82696C99.743 6.80781 101.547 5.05788 104.131 5.03096V2.90412C102.139 2.90412 100.524 3.95408 99.6084 5.27326V3.20026H97.4546V17.3882H99.743ZM111.257 17.7112C114.622 17.7112 116.587 16.2574 117.637 14.2383L115.645 13.0268C114.945 14.669 113.653 15.5575 111.337 15.5575C108.726 15.5575 106.653 13.7806 106.249 11.1423H118.041C118.068 10.873 118.095 10.3884 118.095 9.98461C118.095 6.24245 115.376 2.8772 111.095 2.8772C107.084 2.8772 103.934 6.18861 103.934 10.3077C103.934 14.5344 106.895 17.7112 111.257 17.7112ZM115.753 9.15003H106.276C106.707 6.45783 108.78 4.86943 111.176 4.86943C113.545 4.86943 115.403 6.48475 115.753 9.15003Z" fill="#04091E"/>
  <path d="M68.8534 26.0518C68.927 26.0518 69.0049 26.047 69.0869 26.0376C69.1689 26.0281 69.2583 26.0139 69.355 25.995V25.7489H69.2983C69.0311 25.7489 68.8408 25.7168 68.7272 25.6527C68.6136 25.5885 68.5243 25.4681 68.459 25.2914C68.4296 25.2178 68.3896 25.069 68.3392 24.845C68.2887 24.621 68.2277 24.4512 68.1562 24.3355C68.0931 24.2303 68.0068 24.1425 67.8975 24.0721C67.7881 24.0016 67.6524 23.9443 67.4905 23.9001C67.8375 23.8244 68.0983 23.6966 68.2729 23.5168C68.4475 23.337 68.5348 23.1072 68.5348 22.8274C68.5348 22.4341 68.4075 22.1423 68.153 21.952C67.8985 21.7616 67.5073 21.6664 66.9794 21.6664H65.3325V21.9251L65.6985 21.963L65.8089 22.0545V25.6132L65.6985 25.7047L65.3325 25.7363V26.0013H66.869V25.7363L66.4998 25.7047L66.3894 25.6132V24.0768L66.4115 24.0736C66.5503 24.0673 66.6513 24.0642 66.7144 24.0642C67.0109 24.0642 67.2323 24.1147 67.3785 24.2156C67.5247 24.3166 67.6409 24.4985 67.7271 24.7614C67.7502 24.8308 67.7807 24.936 67.8186 25.0769C67.9196 25.4681 68.0468 25.731 68.2003 25.8656C68.274 25.9287 68.3639 25.9755 68.4701 26.006C68.5763 26.0365 68.7041 26.0518 68.8534 26.0518ZM66.7459 23.7708C66.6912 23.7708 66.6345 23.7702 66.5756 23.7692C66.5167 23.7681 66.4546 23.7666 66.3894 23.7645V21.963H66.7018C67.1203 21.963 67.4232 22.0356 67.6104 22.1807C67.7976 22.3258 67.8912 22.5593 67.8912 22.8811C67.8912 23.1924 67.8002 23.4185 67.6183 23.5594C67.4363 23.7003 67.1455 23.7708 66.7459 23.7708ZM70.5247 26.0581C70.7329 26.0581 70.9401 26.0255 71.1462 25.9603C71.3523 25.8951 71.5511 25.7994 71.7425 25.6732V25.3167C71.549 25.445 71.3697 25.5396 71.2046 25.6006C71.0395 25.6616 70.8801 25.6921 70.7266 25.6921C70.3943 25.6921 70.1303 25.5738 69.9347 25.3372C69.7391 25.1006 69.6413 24.7793 69.6413 24.3734V24.3008H71.733C71.7372 24.2756 71.7399 24.2493 71.7409 24.2219C71.742 24.1946 71.7425 24.1546 71.7425 24.102C71.7425 23.7087 71.6378 23.398 71.4286 23.1698C71.2193 22.9415 70.9359 22.8274 70.5783 22.8274C70.1408 22.8274 69.7827 22.9805 69.5041 23.2865C69.2254 23.5925 69.086 23.9874 69.086 24.4712C69.086 24.9423 69.2191 25.3246 69.4851 25.618C69.7512 25.9114 70.0977 26.0581 70.5247 26.0581ZM71.1651 24.0295H69.6729C69.6918 23.7666 69.7796 23.5494 69.9363 23.378C70.093 23.2066 70.2786 23.1209 70.4931 23.1209C70.7119 23.1209 70.8786 23.1903 70.9932 23.3291C71.1078 23.4679 71.1651 23.6677 71.1651 23.9285V24.0295ZM72.9027 26.0455C73.0541 26.0455 73.2166 26.0113 73.3901 25.9429C73.5636 25.8746 73.7545 25.7689 73.9627 25.6259L74.0479 26.0013H74.9565V25.7678L74.6158 25.7363L74.5054 25.6322V23.7581C74.5054 23.4321 74.4286 23.1955 74.275 23.0483C74.1215 22.9011 73.8754 22.8274 73.5368 22.8274C73.1519 22.8274 72.838 22.8969 72.5951 23.0357C72.3521 23.1745 72.2307 23.3491 72.2307 23.5594C72.2307 23.6351 72.2449 23.6872 72.2732 23.7156C72.3016 23.7439 72.3548 23.7581 72.4326 23.7581H72.8774V23.2155C72.9637 23.1818 73.0467 23.1566 73.1267 23.1398C73.2066 23.123 73.2876 23.1145 73.3696 23.1145C73.5883 23.1145 73.7419 23.1671 73.8302 23.2723C73.9185 23.3775 73.9627 23.5657 73.9627 23.837V24.0421C73.1572 24.2356 72.6413 24.4112 72.4152 24.569C72.1891 24.7267 72.0761 24.9433 72.0761 25.2189C72.0761 25.4671 72.1513 25.6669 72.3016 25.8183C72.452 25.9697 72.6524 26.0455 72.9027 26.0455ZM73.1614 25.6984C73.0036 25.6984 72.8779 25.6506 72.7843 25.5549C72.6908 25.4592 72.644 25.3303 72.644 25.1684C72.644 24.9665 72.7286 24.8035 72.8979 24.6794C73.0672 24.5553 73.4222 24.4186 73.9627 24.2692V25.4082C73.7923 25.5049 73.6414 25.5775 73.51 25.6259C73.3785 25.6742 73.2623 25.6984 73.1614 25.6984ZM76.5584 26.0013V25.7678L76.1892 25.7363L76.0725 25.6322V21.2468H75.8264L75.0377 21.4771V21.6791H75.5362V25.6322L75.4258 25.7363L75.044 25.7678V26.0013H76.5584ZM81.5919 26.0013V24.9476H81.2575L81.1471 25.6006L81.0556 25.7047H79.3236V23.8938H80.3836L80.4751 23.9916L80.5382 24.4585H80.8442V23.0357H80.5382L80.4751 23.5058L80.3836 23.5972H79.3236V21.963H80.819L80.9073 22.0608L80.9988 22.6098H81.3616V21.6664H78.2667V21.9251L78.6326 21.963L78.7431 22.0545V25.6132L78.6326 25.7047L78.2667 25.7363V26.0013H81.5919ZM82.6701 26.0581C83.0487 26.0581 83.3447 25.9724 83.5582 25.801C83.7717 25.6295 83.8784 25.3924 83.8784 25.0895C83.8784 24.9738 83.8574 24.8682 83.8153 24.7725C83.7733 24.6768 83.7123 24.5974 83.6323 24.5343C83.523 24.4438 83.3463 24.3429 83.1023 24.2314C83.0329 24.1998 82.9814 24.1756 82.9477 24.1588C82.7332 24.0558 82.5881 23.9622 82.5123 23.878C82.4366 23.7939 82.3988 23.6919 82.3988 23.572C82.3988 23.4248 82.4461 23.3101 82.5407 23.2281C82.6354 23.1461 82.7668 23.1051 82.9351 23.1051C83.0129 23.1051 83.0907 23.1166 83.1686 23.1398C83.2464 23.1629 83.3284 23.1976 83.4146 23.2439L83.4651 23.7014H83.7838V22.9694C83.6744 22.9231 83.5571 22.8879 83.432 22.8637C83.3069 22.8395 83.1717 22.8274 83.0266 22.8274C82.6627 22.8274 82.3809 22.9063 82.1811 23.0641C81.9813 23.2218 81.8814 23.4448 81.8814 23.7329C81.8814 23.9222 81.9397 24.081 82.0565 24.2093C82.1732 24.3376 82.3935 24.4743 82.7174 24.6194C83.0035 24.7498 83.1843 24.8576 83.2601 24.9428C83.3358 25.028 83.3736 25.1358 83.3736 25.2662C83.3736 25.4218 83.3184 25.5475 83.208 25.6432C83.0976 25.7389 82.9509 25.7868 82.7679 25.7868C82.6753 25.7868 82.5833 25.7741 82.4918 25.7489C82.4003 25.7237 82.3094 25.6848 82.2189 25.6322L82.1401 25.0832H81.8309V25.9224C81.9508 25.9687 82.0817 26.0029 82.2237 26.025C82.3656 26.047 82.5144 26.0581 82.6701 26.0581ZM85.1679 26.0202C85.3005 26.0202 85.4382 26.0081 85.5812 25.9839C85.7243 25.9598 85.8694 25.9245 86.0166 25.8783V25.6385C85.9367 25.6574 85.8594 25.6711 85.7847 25.6795C85.7101 25.6879 85.638 25.6921 85.5686 25.6921C85.3667 25.6921 85.2268 25.6443 85.149 25.5486C85.0712 25.4529 85.0323 25.2651 85.0323 24.9854V23.2818H86.0166V22.9789H85.0323V22.2911H84.7925L84.5149 22.8937L84.089 23.0798V23.2818H84.496V25.3672C84.496 25.6153 84.5459 25.7862 84.6458 25.8798C84.7457 25.9734 84.9198 26.0202 85.1679 26.0202ZM86.9686 26.0455C87.12 26.0455 87.2825 26.0113 87.456 25.9429C87.6295 25.8746 87.8204 25.7689 88.0286 25.6259L88.1138 26.0013H89.0224V25.7678L88.6817 25.7363L88.5713 25.6322V23.7581C88.5713 23.4321 88.4945 23.1955 88.341 23.0483C88.1874 22.9011 87.9413 22.8274 87.6027 22.8274C87.2178 22.8274 86.9039 22.8969 86.661 23.0357C86.418 23.1745 86.2966 23.3491 86.2966 23.5594C86.2966 23.6351 86.3108 23.6872 86.3392 23.7156C86.3676 23.7439 86.4207 23.7581 86.4985 23.7581H86.9433V23.2155C87.0296 23.1818 87.1126 23.1566 87.1926 23.1398C87.2725 23.123 87.3535 23.1145 87.4355 23.1145C87.6542 23.1145 87.8078 23.1671 87.8961 23.2723C87.9845 23.3775 88.0286 23.5657 88.0286 23.837V24.0421C87.2231 24.2356 86.7072 24.4112 86.4811 24.569C86.255 24.7267 86.142 24.9433 86.142 25.2189C86.142 25.4671 86.2172 25.6669 86.3676 25.8183C86.5179 25.9697 86.7183 26.0455 86.9686 26.0455ZM87.2273 25.6984C87.0695 25.6984 86.9439 25.6506 86.8503 25.5549C86.7567 25.4592 86.7099 25.3303 86.7099 25.1684C86.7099 24.9665 86.7945 24.8035 86.9638 24.6794C87.1332 24.5553 87.4881 24.4186 88.0286 24.2692V25.4082C87.8583 25.5049 87.7073 25.5775 87.5759 25.6259C87.4444 25.6742 87.3282 25.6984 87.2273 25.6984ZM90.17 26.0202C90.3025 26.0202 90.4403 26.0081 90.5833 25.9839C90.7263 25.9598 90.8714 25.9245 91.0187 25.8783V25.6385C90.9387 25.6574 90.8614 25.6711 90.7868 25.6795C90.7121 25.6879 90.6401 25.6921 90.5707 25.6921C90.3687 25.6921 90.2289 25.6443 90.151 25.5486C90.0732 25.4529 90.0343 25.2651 90.0343 24.9854V23.2818H91.0187V22.9789H90.0343V22.2911H89.7945L89.5169 22.8937L89.091 23.0798V23.2818H89.498V25.3672C89.498 25.6153 89.5479 25.7862 89.6478 25.8798C89.7477 25.9734 89.9218 26.0202 90.17 26.0202ZM92.5511 26.0581C92.7593 26.0581 92.9665 26.0255 93.1726 25.9603C93.3787 25.8951 93.5775 25.7994 93.7689 25.6732V25.3167C93.5754 25.445 93.3961 25.5396 93.231 25.6006C93.0659 25.6616 92.9066 25.6921 92.753 25.6921C92.4207 25.6921 92.1567 25.5738 91.9611 25.3372C91.7655 25.1006 91.6677 24.7793 91.6677 24.3734V24.3008H93.7594C93.7636 24.2756 93.7663 24.2493 93.7673 24.2219C93.7684 24.1946 93.7689 24.1546 93.7689 24.102C93.7689 23.7087 93.6643 23.398 93.455 23.1698C93.2457 22.9415 92.9623 22.8274 92.6047 22.8274C92.1673 22.8274 91.8092 22.9805 91.5305 23.2865C91.2518 23.5925 91.1125 23.9874 91.1125 24.4712C91.1125 24.9423 91.2455 25.3246 91.5116 25.618C91.7776 25.9114 92.1241 26.0581 92.5511 26.0581ZM93.1916 24.0295H91.6993C91.7182 23.7666 91.806 23.5494 91.9627 23.378C92.1194 23.2066 92.305 23.1209 92.5196 23.1209C92.7383 23.1209 92.905 23.1903 93.0196 23.3291C93.1342 23.4679 93.1916 23.6677 93.1916 23.9285V24.0295ZM96.9632 26.0802C97.4679 26.0802 97.8728 25.9608 98.1778 25.7221C98.4828 25.4834 98.6353 25.1694 98.6353 24.7803C98.6353 24.6394 98.6116 24.509 98.5643 24.3891C98.517 24.2692 98.446 24.163 98.3513 24.0705C98.1852 23.9064 97.9138 23.7508 97.5373 23.6036C97.4658 23.5762 97.4122 23.5552 97.3764 23.5405C96.9937 23.3785 96.747 23.2402 96.6366 23.1256C96.5262 23.011 96.471 22.8664 96.471 22.6918C96.471 22.452 96.5499 22.2622 96.7076 22.1223C96.8654 21.9824 97.0788 21.9125 97.3481 21.9125C97.4616 21.9125 97.5668 21.9236 97.6635 21.9456C97.7603 21.9677 97.8497 22.0019 97.9317 22.0482L98.0264 22.1554L98.1242 22.7707H98.4617V21.7705C98.2724 21.7095 98.0868 21.6638 97.9049 21.6333C97.723 21.6028 97.5416 21.5876 97.3607 21.5876C96.9106 21.5876 96.5493 21.7017 96.277 21.9299C96.0046 22.1581 95.8684 22.4573 95.8684 22.8274C95.8684 23.0904 95.9399 23.3044 96.0829 23.4695C96.226 23.6346 96.5183 23.8128 96.96 24.0042C96.9958 24.019 97.0473 24.041 97.1146 24.0705C97.733 24.3334 98.0421 24.63 98.0421 24.9602C98.0421 25.1978 97.9543 25.3866 97.7787 25.5265C97.6031 25.6663 97.3649 25.7363 97.0641 25.7363C96.9211 25.7363 96.7886 25.7237 96.6666 25.6984C96.5446 25.6732 96.4363 25.6364 96.3416 25.588L96.2565 25.4776L96.1807 24.7362H95.799V25.8719C95.9525 25.9392 96.1287 25.9908 96.3274 26.0265C96.5262 26.0623 96.7381 26.0802 96.9632 26.0802ZM100.527 26.0581C100.965 26.0581 101.325 25.9072 101.608 25.6054C101.891 25.3035 102.032 24.916 102.032 24.4428C102.032 23.9695 101.891 23.582 101.61 23.2802C101.328 22.9784 100.967 22.8274 100.527 22.8274C100.086 22.8274 99.7255 22.9778 99.4468 23.2786C99.1681 23.5794 99.0288 23.9674 99.0288 24.4428C99.0288 24.9181 99.1692 25.3062 99.45 25.6069C99.7308 25.9077 100.09 26.0581 100.527 26.0581ZM100.527 25.7805C100.26 25.7805 100.045 25.659 99.8806 25.4161C99.7166 25.1731 99.6345 24.8487 99.6345 24.4428C99.6345 24.0368 99.716 23.7124 99.8791 23.4695C100.042 23.2265 100.258 23.1051 100.527 23.1051C100.797 23.1051 101.014 23.2271 101.179 23.471C101.344 23.715 101.427 24.0389 101.427 24.4428C101.427 24.8508 101.345 25.1758 101.18 25.4176C101.016 25.6595 100.799 25.7805 100.527 25.7805ZM103.751 26.0013V25.7678L103.382 25.7363L103.265 25.6322V21.2468H103.019L102.23 21.4771V21.6791H102.729V25.6322L102.618 25.7363L102.237 25.7678V26.0013H103.751ZM105.157 26.0644C105.311 26.0644 105.473 26.0297 105.645 25.9603C105.816 25.8909 106.003 25.7836 106.205 25.6385V26.0013H107.161V25.7678L106.858 25.7363L106.741 25.6322V22.8274H106.495L105.744 23.0672V23.2691H106.205V25.4587C106.07 25.5239 105.941 25.5722 105.818 25.6038C105.695 25.6353 105.574 25.6511 105.454 25.6511C105.239 25.6511 105.081 25.5959 104.98 25.4855C104.879 25.375 104.829 25.202 104.829 24.9665V22.8274H104.583L103.832 23.0672V23.2691H104.293V25.0769C104.293 25.3966 104.367 25.6411 104.515 25.8104C104.663 25.9797 104.877 26.0644 105.157 26.0644ZM108.365 26.0202C108.497 26.0202 108.635 26.0081 108.778 25.9839C108.921 25.9598 109.066 25.9245 109.214 25.8783V25.6385C109.134 25.6574 109.056 25.6711 108.982 25.6795C108.907 25.6879 108.835 25.6921 108.766 25.6921C108.564 25.6921 108.424 25.6443 108.346 25.5486C108.268 25.4529 108.229 25.2651 108.229 24.9854V23.2818H109.214V22.9789H108.229V22.2911H107.989L107.712 22.8937L107.286 23.0798V23.2818H107.693V25.3672C107.693 25.6153 107.743 25.7862 107.843 25.8798C107.943 25.9734 108.117 26.0202 108.365 26.0202ZM110.061 22.1712C110.167 22.1712 110.255 22.1355 110.328 22.064C110.401 21.9924 110.437 21.9052 110.437 21.8021C110.437 21.699 110.401 21.6107 110.328 21.5371C110.255 21.4635 110.167 21.4267 110.061 21.4267C109.958 21.4267 109.87 21.4629 109.798 21.5355C109.725 21.6081 109.689 21.6969 109.689 21.8021C109.689 21.9052 109.725 21.9924 109.798 22.064C109.87 22.1355 109.958 22.1712 110.061 22.1712ZM110.746 26.0013V25.7678L110.399 25.7363L110.289 25.6322V22.8621H110.036L109.295 23.0925V23.2944H109.746V25.6322L109.635 25.7363L109.295 25.7678V26.0013H110.746ZM112.398 26.0581C112.836 26.0581 113.196 25.9072 113.479 25.6054C113.762 25.3035 113.903 24.916 113.903 24.4428C113.903 23.9695 113.762 23.582 113.48 23.2802C113.199 22.9784 112.838 22.8274 112.398 22.8274C111.957 22.8274 111.596 22.9778 111.318 23.2786C111.039 23.5794 110.9 23.9674 110.9 24.4428C110.9 24.9181 111.04 25.3062 111.321 25.6069C111.602 25.9077 111.961 26.0581 112.398 26.0581ZM112.398 25.7805C112.131 25.7805 111.916 25.659 111.752 25.4161C111.587 25.1731 111.505 24.8487 111.505 24.4428C111.505 24.0368 111.587 23.7124 111.75 23.4695C111.913 23.2265 112.129 23.1051 112.398 23.1051C112.668 23.1051 112.885 23.2271 113.05 23.471C113.215 23.715 113.297 24.0389 113.297 24.4428C113.297 24.8508 113.215 25.1758 113.051 25.4176C112.887 25.6595 112.67 25.7805 112.398 25.7805ZM115.537 26.0013V25.7678L115.227 25.7363L115.117 25.6322V23.4679C115.256 23.3964 115.385 23.3433 115.505 23.3086C115.625 23.2739 115.736 23.2565 115.839 23.2565C116.075 23.2565 116.243 23.307 116.343 23.4079C116.443 23.5089 116.493 23.6803 116.493 23.9222V25.6322L116.382 25.7363L116.073 25.7678V26.0013H117.486V25.7678L117.139 25.7363L117.029 25.6322V23.8118C117.029 23.4921 116.954 23.2481 116.805 23.0798C116.656 22.9116 116.44 22.8274 116.158 22.8274C116.038 22.8274 115.899 22.8564 115.742 22.9142C115.584 22.972 115.376 23.0725 115.117 23.2155V22.8621H114.871L114.12 23.0925V23.2944H114.581V25.6322L114.47 25.7363L114.12 25.7678V26.0013H115.537Z" fill="#04091E"/>
  <path fill-rule="evenodd" clip-rule="evenodd" d="M0.865723 0.15625H27.7877V27.0783H0.865723V0.15625ZM20.9029 7.04087L7.7492 7.03946V20.1943L7.74484 20.1984L7.74497 20.1994H20.9088L20.9078 7.0362L20.9072 7.03608L20.9029 7.04087Z" fill="#04091E"/>
</svg>
