<svg id='slide2' width="92" height="23" viewBox="0 0 92 23" fill="none" xmlns="http://www.w3.org/2000/svg">
  <path d="M0.693359 21.1861C1.47537 21.1353 2.03903 21.0236 2.38434 20.8509C2.9937 20.5361 3.29838 19.9623 3.29838 19.1295V3.74309C3.29838 2.94077 3.00893 2.38218 2.43004 2.06735C2.09489 1.88454 1.516 1.75759 0.693359 1.6865V0.894327H10.2299C14.079 0.894327 17.0141 1.92009 19.0351 3.9716C20.8734 5.84031 21.7925 8.34885 21.7925 11.4972C21.7925 14.3206 20.8683 16.7123 19.0199 18.6725C16.9379 20.8763 14.1145 21.9782 10.5498 21.9782H0.693359V21.1861ZM8.34085 19.099C8.37132 19.7388 8.48811 20.2009 8.69123 20.4853C8.90451 20.7697 9.35137 20.9119 10.0318 20.9119C11.8802 20.9119 13.3985 20.2619 14.5868 18.9619C15.7751 17.6518 16.3692 15.1432 16.3692 11.4363C16.3692 9.23242 16.0493 7.33833 15.4094 5.75399C14.3735 3.20482 12.6267 1.93024 10.1689 1.93024C9.35645 1.93024 8.82834 2.10289 8.58459 2.4482C8.4221 2.67163 8.34085 3.10326 8.34085 3.74309V19.099Z" fill="#04091E"/>
  <path d="M23.4987 14.8335C23.4987 12.6601 24.1639 10.8472 25.4944 9.39492C26.835 7.94261 28.5158 7.21645 30.5368 7.21645C32.5985 7.21645 34.2844 7.95784 35.5945 9.44062C36.9148 10.9234 37.575 12.721 37.575 14.8335C37.575 16.9155 36.925 18.708 35.625 20.2111C34.325 21.704 32.629 22.4505 30.5368 22.4505C28.5056 22.4505 26.8248 21.7243 25.4944 20.272C24.1639 18.8096 23.4987 16.9967 23.4987 14.8335ZM28.0842 14.8335C28.0842 17.017 28.1959 18.5455 28.4193 19.4189C28.7748 20.7697 29.4806 21.445 30.5368 21.445C31.5423 21.445 32.2024 20.9271 32.5173 19.8912C32.8321 18.8553 32.9895 17.1694 32.9895 14.8335C32.9895 12.5077 32.8219 10.8269 32.4868 9.79101C32.1618 8.74494 31.5169 8.2219 30.5521 8.2219C29.4959 8.2219 28.79 8.89728 28.4345 10.248C28.201 11.1519 28.0842 12.6804 28.0842 14.8335Z" fill="#04091E"/>
  <path d="M38.9765 21.2318C39.5757 21.1607 39.9921 21.0185 40.2257 20.8052C40.4593 20.5919 40.5862 20.1806 40.6065 19.5713L40.637 18.6572V10.1719C40.637 9.52187 40.5253 9.08008 40.3019 8.8465C40.0784 8.61291 39.6366 8.45549 38.9765 8.37424V7.61254H44.9025V10.0652C45.5627 9.20196 46.2178 8.51642 46.8677 8.00862C47.5177 7.50082 48.2693 7.24692 49.1224 7.24692C49.7622 7.24692 50.336 7.45512 50.8438 7.87152C51.3618 8.27776 51.6208 8.87696 51.6208 9.66913C51.6208 10.2785 51.4379 10.7812 51.0723 11.1773C50.7169 11.5734 50.2497 11.7714 49.6708 11.7714C49.0107 11.7714 48.4368 11.4617 47.9494 10.8422C47.472 10.2226 47.1369 9.91288 46.9439 9.91288C46.5275 9.91288 46.106 10.1719 45.6795 10.6898C45.2631 11.1976 45.0549 11.9289 45.0549 12.8835V18.7791C45.0549 19.815 45.2021 20.465 45.4967 20.729C45.8014 20.9829 46.4006 21.1505 47.2943 21.2318V21.9782H38.9765V21.2318Z" fill="#04091E"/>
  <path d="M52.7024 21.2318C53.3422 21.181 53.7992 21.0388 54.0734 20.8052C54.3578 20.5716 54.5 20.0841 54.5 19.3427V9.19688H52.7024V7.82581H54.5V6.66803C54.5 5.21572 54.7285 4.02238 55.1855 3.08803C56.0488 1.34119 57.6433 0.467773 59.969 0.467773C61.208 0.467773 62.2541 0.752142 63.1072 1.32088C63.9705 1.87946 64.4021 2.62085 64.4021 3.54505C64.4021 4.12394 64.2193 4.59112 63.8537 4.94658C63.4982 5.30204 63.0209 5.47977 62.4217 5.47977C61.924 5.47977 61.4975 5.31728 61.142 4.99228C60.7866 4.66729 60.6088 4.27628 60.6088 3.81926C60.6088 3.47396 60.7206 3.11342 60.944 2.73765C61.1776 2.35172 61.2944 2.11813 61.2944 2.03688C61.2944 1.78298 61.203 1.62048 61.0202 1.54939C60.8373 1.4783 60.6393 1.44275 60.426 1.44275C59.9182 1.44275 59.5272 1.59001 59.253 1.88454C58.9788 2.17906 58.8417 2.81382 58.8417 3.78879V7.82581H61.5533V9.19688H58.8417V18.7791C58.8417 19.8556 58.994 20.5158 59.2987 20.7595C59.6135 21.0033 60.3042 21.1607 61.3705 21.2318V21.9782H52.7024V21.2318Z" fill="#04091E"/>
  <path d="M69.0485 7.61254V18.2002C69.0485 18.8299 69.1247 19.292 69.277 19.5865C69.5411 20.1045 70.0641 20.3634 70.8461 20.3634C71.3438 20.3634 71.8312 20.206 72.3086 19.8912C72.5828 19.7185 72.9281 19.4291 73.3445 19.0228V10.1719C73.3445 9.52187 73.2125 9.06993 72.9484 8.81603C72.6945 8.55197 72.1766 8.40471 71.3945 8.37424V7.61254H77.61V18.84C77.61 19.49 77.7319 19.942 77.9756 20.1959C78.2194 20.4396 78.6967 20.5919 79.4076 20.6529V21.3689C77.478 21.5517 76.2593 21.6888 75.7515 21.7802C75.2538 21.8614 74.4515 22.0747 73.3445 22.42V20.3634C72.6031 21.0033 71.9887 21.4552 71.5012 21.7193C70.6481 22.1864 69.7594 22.42 68.8352 22.42C67.8298 22.42 66.8903 22.1001 66.0169 21.4603C65.1537 20.8205 64.722 19.683 64.722 18.0479V10.1719C64.722 9.51171 64.6154 9.08008 64.4021 8.87696C64.1888 8.67384 63.7775 8.50627 63.1682 8.37424V7.61254H69.0485Z" fill="#04091E"/>
  <path d="M80.8244 17.2557H81.6927C81.9974 18.7486 82.5662 19.8048 83.399 20.4244C84.2318 21.0337 85.0849 21.3384 85.9583 21.3384C86.7606 21.3384 87.3497 21.1607 87.7254 20.8052C88.1012 20.4396 88.2891 19.9623 88.2891 19.3732C88.2891 18.8146 88.086 18.3373 87.6797 17.9412C87.4563 17.7279 87.0958 17.4994 86.5981 17.2557L84.2825 16.1284C83.0638 15.5292 82.1904 14.8792 81.6623 14.1784C81.124 13.4776 80.8549 12.6499 80.8549 11.6953C80.8549 10.4867 81.2764 9.4457 82.1193 8.57228C82.9623 7.68871 84.1404 7.24692 85.6536 7.24692C86.3137 7.24692 87.0145 7.35864 87.7559 7.58207C88.4973 7.79535 88.9594 7.90199 89.1422 7.90199C89.3961 7.90199 89.5738 7.8512 89.6754 7.74964C89.7871 7.63793 89.8785 7.48559 89.9496 7.29262H90.6351V11.8019H89.843C89.5484 10.7457 89.066 9.89764 88.3957 9.25781C87.7254 8.61798 86.9434 8.29807 86.0497 8.29807C85.3591 8.29807 84.8411 8.49103 84.4958 8.87696C84.1607 9.26289 83.9931 9.67929 83.9931 10.1262C83.9931 10.4918 84.1454 10.8574 84.4501 11.223C84.7446 11.5988 85.3032 11.9847 86.1259 12.3808L87.8321 13.2034C88.8883 13.7112 89.6602 14.2038 90.1476 14.6811C90.9601 15.4936 91.3664 16.494 91.3664 17.6822C91.3664 18.84 90.9449 19.9216 90.1019 20.9271C89.2691 21.9224 88.0149 22.42 86.3391 22.42C85.9227 22.42 85.5013 22.3743 85.0747 22.2829C84.6583 22.2017 84.1404 22.0544 83.5208 21.8411L82.9876 21.6583C82.7947 21.5872 82.6728 21.5466 82.622 21.5365C82.5814 21.5263 82.5255 21.5212 82.4545 21.5212C82.2818 21.5212 82.1295 21.5923 81.9974 21.7345C81.8756 21.8665 81.7334 22.095 81.5709 22.42H80.8244V17.2557Z" fill="#04091E"/>
</svg>
