<svg id='slide1' width="99" height="30" viewBox="0 0 99 30" fill="none" xmlns="http://www.w3.org/2000/svg">
  <path d="M34.8143 19.2807V12.4072H36.4028C37.595 12.4072 38.6108 11.9809 39.45 11.1284C40.2892 10.2759 40.7088 9.25015 40.7088 8.05128V5.40377C40.7088 4.15828 40.3391 3.13258 39.5998 2.32667C38.8072 1.4808 37.7416 1.05786 36.4028 1.05786H32.0769V19.2807H34.8143ZM36.4728 9.68974H34.8143V3.86522H36.4728C36.9523 3.86522 37.3336 4.01008 37.6167 4.29981C37.8998 4.58954 38.0413 4.97417 38.0413 5.45372V8.11122C38.0413 8.54415 37.8898 8.91546 37.5867 9.22517C37.2837 9.53488 36.9124 9.68974 36.4728 9.68974ZM45.0726 19.2807L45.7419 15.0946H48.6092L49.2586 19.2807H52.1359L49.0888 1.05786H45.3023L42.2153 19.2807H45.0726ZM48.1996 12.4172H46.1615L47.1806 5.23393L48.1996 12.4172ZM58.268 19.2807V12.4072H59.8565C61.0487 12.4072 62.0645 11.9809 62.9037 11.1284C63.7429 10.2759 64.1625 9.25015 64.1625 8.05128V5.40377C64.1625 4.15828 63.7928 3.13258 63.0535 2.32667C62.2609 1.4808 61.1953 1.05786 59.8565 1.05786H55.5306V19.2807H58.268ZM59.9265 9.68974H58.268V3.86522H59.9265C60.406 3.86522 60.7873 4.01008 61.0704 4.29981C61.3535 4.58954 61.495 4.97417 61.495 5.45372V8.11122C61.495 8.54415 61.3435 8.91546 61.0404 9.22517C60.7374 9.53488 60.3661 9.68974 59.9265 9.68974ZM75.2499 19.2807V16.5333H70.1747V11.548H73.8812V8.79058H70.1747V3.80527H75.2499V1.05786H67.4373V19.2807H75.2499ZM80.9625 19.2807V12.4072H82.541C82.6276 12.4072 82.7108 12.4038 82.7907 12.3972L84.4692 19.2807H87.4364L85.3983 11.3182C86.3774 10.4324 86.8669 9.3434 86.8669 8.05128V5.40377C86.8669 4.09167 86.5505 3.06597 85.9178 2.32667C85.2051 1.4808 84.0829 1.05786 82.551 1.05786H78.225V19.2807H80.9625ZM82.6209 9.68974H80.9625V3.86522H82.6209C83.6666 3.86522 84.1894 4.39472 84.1894 5.45372V8.11122C84.1894 8.54415 84.0379 8.91546 83.7348 9.22517C83.4318 9.53488 83.0605 9.68974 82.6209 9.68974ZM98.7236 19.2807V16.5533H93.6684L98.7236 3.80527V1.05786H90.7112V3.80527H95.7764L90.7112 16.5533V19.2807H98.7236Z" fill="#04091E"/>
  <path d="M34.1057 28.6152V28.2146H32.122V24.2086H31.6375V28.6152H34.1057ZM35.9342 28.7186C36.253 28.7186 36.5286 28.6551 36.7613 28.528C36.9939 28.4009 37.1812 28.2254 37.3234 28.0014L36.9745 27.7688C36.8711 27.9411 36.7343 28.0757 36.5642 28.1726C36.394 28.2695 36.1797 28.318 35.9213 28.318C35.6025 28.318 35.3505 28.2081 35.1653 27.9885C34.9801 27.7688 34.8789 27.5039 34.8616 27.1937H37.3492C37.3535 27.1507 37.3557 27.0882 37.3557 27.0063C37.3557 26.7221 37.2932 26.4647 37.1683 26.2342C37.0434 26.0038 36.8711 25.8218 36.6514 25.6882C36.4317 25.5547 36.1862 25.4879 35.9148 25.4879C35.6262 25.4879 35.3688 25.5569 35.1427 25.6947C34.9166 25.8325 34.7399 26.0242 34.6129 26.2698C34.4858 26.5153 34.4223 26.7931 34.4223 27.1033C34.4223 27.4134 34.4869 27.6912 34.6161 27.9368C34.7453 28.1823 34.9241 28.374 35.1524 28.5118C35.3807 28.6497 35.6413 28.7186 35.9342 28.7186ZM36.9163 26.8319H34.8875C34.9349 26.5605 35.0479 26.3355 35.2267 26.1567C35.4055 25.9779 35.6348 25.8885 35.9148 25.8885C36.2034 25.8885 36.4317 25.9672 36.5997 26.1244C36.7677 26.2816 36.8732 26.5174 36.9163 26.8319ZM39.3199 28.7186C39.5353 28.7186 39.7334 28.6701 39.9144 28.5732C40.0953 28.4763 40.2482 28.3417 40.3731 28.1694V28.6152H40.8125V25.5913H40.3731V26.0436C40.2482 25.867 40.0942 25.7302 39.9111 25.6333C39.7281 25.5364 39.5267 25.4879 39.307 25.4879C39.0184 25.4879 38.761 25.5569 38.5349 25.6947C38.3087 25.8325 38.1321 26.0232 38.005 26.2665C37.878 26.5099 37.8144 26.7867 37.8144 27.0968C37.8144 27.4113 37.8791 27.6912 38.0083 27.9368C38.1375 28.1823 38.3163 28.374 38.5446 28.5118C38.7729 28.6497 39.0313 28.7186 39.3199 28.7186ZM39.307 28.318C39.1045 28.318 38.9236 28.2663 38.7642 28.1629C38.6049 28.0595 38.48 27.9152 38.3895 27.73C38.299 27.5448 38.2538 27.3337 38.2538 27.0968C38.2538 26.8642 38.299 26.6564 38.3895 26.4733C38.48 26.2902 38.6049 26.147 38.7642 26.0436C38.9236 25.9402 39.1045 25.8885 39.307 25.8885C39.5138 25.8885 39.6979 25.9402 39.8594 26.0436C40.021 26.147 40.147 26.2913 40.2374 26.4765C40.3279 26.6617 40.3731 26.8707 40.3731 27.1033C40.3731 27.3359 40.3279 27.5448 40.2374 27.73C40.147 27.9152 40.021 28.0595 39.8594 28.1629C39.6979 28.2663 39.5138 28.318 39.307 28.318ZM42.9447 28.7186C43.1601 28.7186 43.3582 28.6701 43.5391 28.5732C43.7201 28.4763 43.873 28.3417 43.9979 28.1694V28.6152H44.4373V23.9243H43.9979V26.0436C43.873 25.867 43.719 25.7302 43.5359 25.6333C43.3528 25.5364 43.1515 25.4879 42.9318 25.4879C42.6432 25.4879 42.3858 25.5569 42.1597 25.6947C41.9335 25.8325 41.7569 26.0232 41.6298 26.2665C41.5028 26.5099 41.4392 26.7867 41.4392 27.0968C41.4392 27.4113 41.5038 27.6912 41.6331 27.9368C41.7623 28.1823 41.941 28.374 42.1693 28.5118C42.3976 28.6497 42.6561 28.7186 42.9447 28.7186ZM42.9318 28.318C42.7293 28.318 42.5484 28.2663 42.389 28.1629C42.2297 28.0595 42.1047 27.9152 42.0143 27.73C41.9238 27.5448 41.8786 27.3337 41.8786 27.0968C41.8786 26.8642 41.9238 26.6564 42.0143 26.4733C42.1047 26.2902 42.2297 26.147 42.389 26.0436C42.5484 25.9402 42.7293 25.8885 42.9318 25.8885C43.1385 25.8885 43.3227 25.9402 43.4842 26.0436C43.6458 26.147 43.7717 26.2913 43.8622 26.4765C43.9527 26.6617 43.9979 26.8707 43.9979 27.1033C43.9979 27.3359 43.9527 27.5448 43.8622 27.73C43.7717 27.9152 43.6458 28.0595 43.4842 28.1629C43.3227 28.2663 43.1385 28.318 42.9318 28.318ZM45.7101 25.0034C45.8049 25.0034 45.8867 24.9689 45.9557 24.9C46.0246 24.8311 46.059 24.7492 46.059 24.6544C46.059 24.5554 46.0246 24.4725 45.9557 24.4057C45.8867 24.3389 45.8049 24.3055 45.7101 24.3055C45.6111 24.3055 45.5281 24.3389 45.4614 24.4057C45.3946 24.4725 45.3612 24.5532 45.3612 24.648C45.3612 24.7471 45.3946 24.8311 45.4614 24.9C45.5281 24.9689 45.6111 25.0034 45.7101 25.0034ZM45.9298 28.6152V25.5913H45.4904V28.6152H45.9298ZM47.4224 28.6152V27.1033C47.4224 26.7328 47.4999 26.4378 47.655 26.2181C47.81 25.9984 48.0427 25.8885 48.3528 25.8885C48.8869 25.8885 49.154 26.1879 49.154 26.7867V28.6152H49.5934V26.5928C49.5934 26.3645 49.5406 26.1664 49.4351 25.9984C49.3295 25.8304 49.1874 25.7033 49.0086 25.6172C48.8299 25.531 48.6349 25.4879 48.4239 25.4879C48.1999 25.4879 48.0028 25.5407 47.8327 25.6462C47.6625 25.7518 47.5257 25.9015 47.4224 26.0953V25.5913H46.983V28.6152H47.4224ZM51.9323 29.9075C52.1908 29.9075 52.4213 29.8472 52.6237 29.7266C52.8262 29.6059 52.9834 29.439 53.0954 29.2258C53.2074 29.0126 53.2634 28.7703 53.2634 28.4989V25.5913H52.824V26.0436C52.6991 25.867 52.5451 25.7302 52.362 25.6333C52.179 25.5364 51.9776 25.4879 51.7579 25.4879C51.4693 25.4879 51.2119 25.5569 50.9858 25.6947C50.7596 25.8325 50.583 26.0232 50.4559 26.2665C50.3289 26.5099 50.2653 26.7867 50.2653 27.0968C50.2653 27.4113 50.3299 27.6912 50.4592 27.9368C50.5884 28.1823 50.7672 28.374 50.9955 28.5118C51.2238 28.6497 51.4822 28.7186 51.7708 28.7186C51.9862 28.7186 52.1843 28.6701 52.3653 28.5732C52.5462 28.4763 52.6991 28.3417 52.824 28.1694V28.4989C52.824 28.7918 52.7411 29.033 52.5752 29.2226C52.4094 29.4121 52.1951 29.5069 51.9323 29.5069H50.6789V29.9075H51.9323ZM51.7579 28.318C51.5554 28.318 51.3745 28.2663 51.2151 28.1629C51.0558 28.0595 50.9308 27.9152 50.8404 27.73C50.7499 27.5448 50.7047 27.3337 50.7047 27.0968C50.7047 26.8642 50.7499 26.6564 50.8404 26.4733C50.9308 26.2902 51.0558 26.147 51.2151 26.0436C51.3745 25.9402 51.5554 25.8885 51.7579 25.8885C51.9647 25.8885 52.1488 25.9402 52.3103 26.0436C52.4719 26.147 52.5979 26.2913 52.6883 26.4765C52.7788 26.6617 52.824 26.8707 52.824 27.1033C52.824 27.3359 52.7788 27.5448 52.6883 27.73C52.5979 27.9152 52.4719 28.0595 52.3103 28.1629C52.1488 28.2663 51.9647 28.318 51.7579 28.318ZM56.1128 28.6152V26.9288H57.0497C57.4589 26.9288 57.7873 26.8082 58.035 26.567C58.2827 26.3258 58.4066 25.9941 58.4066 25.5719C58.4066 25.1455 58.2881 24.8117 58.0512 24.5704C57.8143 24.3292 57.4977 24.2086 57.1014 24.2086H55.6282V28.6152H56.1128ZM57.0368 26.5282H56.1128V24.6092H57.0368C57.3254 24.6092 57.5451 24.6911 57.6958 24.8547C57.8466 25.0184 57.922 25.2575 57.922 25.5719C57.922 25.8864 57.8466 26.1244 57.6958 26.2859C57.5451 26.4474 57.3254 26.5282 57.0368 26.5282ZM60.2932 28.7186C60.5086 28.7186 60.7068 28.6701 60.8877 28.5732C61.0686 28.4763 61.2215 28.3417 61.3464 28.1694V28.6152H61.7858V25.5913H61.3464V26.0436C61.2215 25.867 61.0675 25.7302 60.8845 25.6333C60.7014 25.5364 60.5 25.4879 60.2803 25.4879C59.9917 25.4879 59.7343 25.5569 59.5082 25.6947C59.2821 25.8325 59.1054 26.0232 58.9784 26.2665C58.8513 26.5099 58.7878 26.7867 58.7878 27.0968C58.7878 27.4113 58.8524 27.6912 58.9816 27.9368C59.1108 28.1823 59.2896 28.374 59.5179 28.5118C59.7462 28.6497 60.0046 28.7186 60.2932 28.7186ZM60.2803 28.318C60.0779 28.318 59.897 28.2663 59.7376 28.1629C59.5782 28.0595 59.4533 27.9152 59.3628 27.73C59.2724 27.5448 59.2271 27.3337 59.2271 27.0968C59.2271 26.8642 59.2724 26.6564 59.3628 26.4733C59.4533 26.2902 59.5782 26.147 59.7376 26.0436C59.897 25.9402 60.0779 25.8885 60.2803 25.8885C60.4871 25.8885 60.6712 25.9402 60.8328 26.0436C60.9943 26.147 61.1203 26.2913 61.2108 26.4765C61.3012 26.6617 61.3464 26.8707 61.3464 27.1033C61.3464 27.3359 61.3012 27.5448 61.2108 27.73C61.1203 27.9152 60.9943 28.0595 60.8328 28.1629C60.6712 28.2663 60.4871 28.318 60.2803 28.318ZM63.0458 29.9075V28.1629C63.1707 28.3395 63.3247 28.4763 63.5077 28.5732C63.6908 28.6701 63.8922 28.7186 64.1119 28.7186C64.4005 28.7186 64.6578 28.6497 64.884 28.5118C65.1101 28.374 65.2867 28.1834 65.4138 27.94C65.5409 27.6966 65.6044 27.4199 65.6044 27.1097C65.6044 26.7953 65.5398 26.5153 65.4106 26.2698C65.2814 26.0242 65.1026 25.8325 64.8743 25.6947C64.646 25.5569 64.3876 25.4879 64.0989 25.4879C63.8836 25.4879 63.6854 25.5364 63.5045 25.6333C63.3236 25.7302 63.1707 25.8649 63.0458 26.0372V25.5913H62.6064V29.9075H63.0458ZM64.1119 28.318C63.9051 28.318 63.721 28.2663 63.5594 28.1629C63.3979 28.0595 63.2719 27.9152 63.1814 27.73C63.091 27.5448 63.0458 27.3359 63.0458 27.1033C63.0458 26.8707 63.091 26.6617 63.1814 26.4765C63.2719 26.2913 63.3979 26.147 63.5594 26.0436C63.721 25.9402 63.9051 25.8885 64.1119 25.8885C64.3143 25.8885 64.4952 25.9402 64.6546 26.0436C64.814 26.147 64.9389 26.2913 65.0294 26.4765C65.1198 26.6617 65.1651 26.8728 65.1651 27.1097C65.1651 27.3423 65.1198 27.5502 65.0294 27.7332C64.9389 27.9163 64.814 28.0595 64.6546 28.1629C64.4952 28.2663 64.3143 28.318 64.1119 28.318ZM67.5493 28.7186C67.868 28.7186 68.1437 28.6551 68.3763 28.528C68.6089 28.4009 68.7963 28.2254 68.9384 28.0014L68.5895 27.7688C68.4862 27.9411 68.3494 28.0757 68.1792 28.1726C68.0091 28.2695 67.7948 28.318 67.5363 28.318C67.2176 28.318 66.9656 28.2081 66.7804 27.9885C66.5952 27.7688 66.4939 27.5039 66.4767 27.1937H68.9643C68.9686 27.1507 68.9708 27.0882 68.9708 27.0063C68.9708 26.7221 68.9083 26.4647 68.7834 26.2342C68.6585 26.0038 68.4862 25.8218 68.2665 25.6882C68.0468 25.5547 67.8013 25.4879 67.5299 25.4879C67.2413 25.4879 66.9839 25.5569 66.7578 25.6947C66.5316 25.8325 66.355 26.0242 66.2279 26.2698C66.1009 26.5153 66.0373 26.7931 66.0373 27.1033C66.0373 27.4134 66.1019 27.6912 66.2312 27.9368C66.3604 28.1823 66.5392 28.374 66.7675 28.5118C66.9958 28.6497 67.2564 28.7186 67.5493 28.7186ZM68.5314 26.8319H66.5025C66.5499 26.5605 66.663 26.3355 66.8418 26.1567C67.0205 25.9779 67.2499 25.8885 67.5299 25.8885C67.8185 25.8885 68.0468 25.9672 68.2148 26.1244C68.3828 26.2816 68.4883 26.5174 68.5314 26.8319ZM70.0562 28.6152V27.1679C70.0562 26.9008 70.1047 26.6693 70.2016 26.4733C70.2985 26.2773 70.4267 26.1276 70.5861 26.0242C70.7454 25.9209 70.9178 25.8692 71.103 25.8692C71.2107 25.8692 71.3097 25.8907 71.4002 25.9338V25.5332C71.3054 25.503 71.2064 25.4879 71.103 25.4879C70.879 25.4879 70.6776 25.5504 70.4988 25.6753C70.3201 25.8002 70.1726 25.9747 70.0562 26.1987V25.5913H69.6169V28.6152H70.0562ZM74.9927 28.7186C75.3459 28.7186 75.6506 28.6303 75.9069 28.4537C76.1632 28.2771 76.3689 28.0208 76.524 27.6848L76.1169 27.4393C75.9705 27.7279 75.8122 27.94 75.642 28.0757C75.4719 28.2114 75.2339 28.2792 74.9281 28.2792C74.6825 28.2792 74.4672 28.2049 74.2819 28.0563C74.0967 27.9077 73.9546 27.6934 73.8555 27.4134C73.7564 27.1334 73.7069 26.8017 73.7069 26.4184C73.7069 25.8325 73.8156 25.3749 74.0332 25.0453C74.2507 24.7158 74.5511 24.5511 74.9345 24.5511C75.2016 24.5511 75.4277 24.606 75.6129 24.7158C75.7982 24.8257 75.9597 25.0077 76.0975 25.2618L76.4852 25.0357C76.3388 24.7427 76.1352 24.5155 75.8746 24.354C75.614 24.1925 75.3007 24.1117 74.9345 24.1117C74.577 24.1117 74.2679 24.2032 74.0073 24.3863C73.7467 24.5694 73.5464 24.8343 73.4064 25.181C73.2664 25.5278 73.1964 25.9424 73.1964 26.4248C73.1964 26.903 73.2686 27.3133 73.4129 27.6557C73.5572 27.9982 73.764 28.2609 74.0332 28.444C74.3024 28.6271 74.6222 28.7186 74.9927 28.7186ZM78.4753 28.7186C78.7639 28.7186 79.0213 28.6497 79.2474 28.5118C79.4736 28.374 79.6502 28.1823 79.7773 27.9368C79.9043 27.6912 79.9679 27.4134 79.9679 27.1033C79.9679 26.7931 79.9032 26.5153 79.774 26.2698C79.6448 26.0242 79.466 25.8325 79.2377 25.6947C79.0094 25.5569 78.751 25.4879 78.4624 25.4879C78.1738 25.4879 77.9164 25.5569 77.6903 25.6947C77.4641 25.8325 77.2875 26.0232 77.1604 26.2665C77.0334 26.5099 76.9698 26.7867 76.9698 27.0968C76.9698 27.4069 77.0344 27.6859 77.1637 27.9335C77.2929 28.1812 77.4716 28.374 77.7 28.5118C77.9282 28.6497 78.1867 28.7186 78.4753 28.7186ZM78.4624 28.318C78.2599 28.318 78.079 28.2663 77.9196 28.1629C77.7603 28.0595 77.6353 27.9152 77.5449 27.73C77.4544 27.5448 77.4092 27.3337 77.4092 27.0968C77.4092 26.8642 77.4544 26.6564 77.5449 26.4733C77.6353 26.2902 77.7603 26.147 77.9196 26.0436C78.079 25.9402 78.2599 25.8885 78.4624 25.8885C78.6691 25.8885 78.8533 25.9402 79.0148 26.0436C79.1763 26.147 79.3023 26.2913 79.3928 26.4765C79.4833 26.6617 79.5285 26.8707 79.5285 27.1033C79.5285 27.3359 79.4833 27.5448 79.3928 27.73C79.3023 27.9152 79.1763 28.0595 79.0148 28.1629C78.8533 28.2663 78.6691 28.318 78.4624 28.318ZM81.0275 28.6152V27.1033C81.0275 26.7328 81.0932 26.4378 81.2246 26.2181C81.356 25.9984 81.553 25.8885 81.8158 25.8885C82.0096 25.8885 82.1669 25.9585 82.2875 26.0985C82.4081 26.2385 82.4684 26.4679 82.4684 26.7867V28.6152H82.9077V26.9094C82.9293 26.595 83.0057 26.3462 83.1371 26.1632C83.2685 25.9801 83.4526 25.8885 83.6896 25.8885C83.8834 25.8885 84.0406 25.9585 84.1612 26.0985C84.2818 26.2385 84.3421 26.4679 84.3421 26.7867V28.6152H84.7815V26.5928C84.7815 26.2482 84.6889 25.9779 84.5037 25.7819C84.3185 25.5859 84.0858 25.4879 83.8059 25.4879C83.5905 25.4879 83.401 25.5483 83.2373 25.6689C83.0736 25.7895 82.9444 25.9575 82.8496 26.1728C82.785 25.9532 82.6708 25.7841 82.5071 25.6656C82.3435 25.5472 82.1518 25.4879 81.9321 25.4879C81.7339 25.4879 81.5584 25.5375 81.4055 25.6366C81.2526 25.7356 81.1266 25.8778 81.0275 26.063V25.5913H80.5881V28.6152H81.0275ZM86.0092 29.9075V28.1629C86.1341 28.3395 86.2881 28.4763 86.4711 28.5732C86.6542 28.6701 86.8556 28.7186 87.0753 28.7186C87.3639 28.7186 87.6213 28.6497 87.8474 28.5118C88.0735 28.374 88.2501 28.1834 88.3772 27.94C88.5043 27.6966 88.5678 27.4199 88.5678 27.1097C88.5678 26.7953 88.5032 26.5153 88.374 26.2698C88.2448 26.0242 88.066 25.8325 87.8377 25.6947C87.6094 25.5569 87.351 25.4879 87.0624 25.4879C86.847 25.4879 86.6488 25.5364 86.4679 25.6333C86.287 25.7302 86.1341 25.8649 86.0092 26.0372V25.5913H85.5698V29.9075H86.0092ZM87.0753 28.318C86.8685 28.318 86.6844 28.2663 86.5228 28.1629C86.3613 28.0595 86.2353 27.9152 86.1448 27.73C86.0544 27.5448 86.0092 27.3359 86.0092 27.1033C86.0092 26.8707 86.0544 26.6617 86.1448 26.4765C86.2353 26.2913 86.3613 26.147 86.5228 26.0436C86.6844 25.9402 86.8685 25.8885 87.0753 25.8885C87.2777 25.8885 87.4586 25.9402 87.618 26.0436C87.7774 26.147 87.9023 26.2913 87.9928 26.4765C88.0832 26.6617 88.1285 26.8728 88.1285 27.1097C88.1285 27.3423 88.0832 27.5502 87.9928 27.7332C87.9023 27.9163 87.7774 28.0595 87.618 28.1629C87.4586 28.2663 87.2777 28.318 87.0753 28.318ZM90.5062 28.7186C90.7216 28.7186 90.9197 28.6701 91.1007 28.5732C91.2816 28.4763 91.4345 28.3417 91.5594 28.1694V28.6152H91.9988V25.5913H91.5594V26.0436C91.4345 25.867 91.2805 25.7302 91.0974 25.6333C90.9144 25.5364 90.713 25.4879 90.4933 25.4879C90.2047 25.4879 89.9473 25.5569 89.7212 25.6947C89.495 25.8325 89.3184 26.0232 89.1913 26.2665C89.0643 26.5099 89.0007 26.7867 89.0007 27.0968C89.0007 27.4113 89.0653 27.6912 89.1946 27.9368C89.3238 28.1823 89.5026 28.374 89.7309 28.5118C89.9592 28.6497 90.2176 28.7186 90.5062 28.7186ZM90.4933 28.318C90.2908 28.318 90.1099 28.2663 89.9505 28.1629C89.7912 28.0595 89.6662 27.9152 89.5758 27.73C89.4853 27.5448 89.4401 27.3337 89.4401 27.0968C89.4401 26.8642 89.4853 26.6564 89.5758 26.4733C89.6662 26.2902 89.7912 26.147 89.9505 26.0436C90.1099 25.9402 90.2908 25.8885 90.4933 25.8885C90.7001 25.8885 90.8842 25.9402 91.0457 26.0436C91.2073 26.147 91.3333 26.2913 91.4237 26.4765C91.5142 26.6617 91.5594 26.8707 91.5594 27.1033C91.5594 27.3359 91.5142 27.5448 91.4237 27.73C91.3333 27.9152 91.2073 28.0595 91.0457 28.1629C90.8842 28.2663 90.7001 28.318 90.4933 28.318ZM93.2523 28.6152V27.1033C93.2523 26.7328 93.3298 26.4378 93.4849 26.2181C93.6399 25.9984 93.8725 25.8885 94.1827 25.8885C94.7168 25.8885 94.9839 26.1879 94.9839 26.7867V28.6152H95.4233V26.5928C95.4233 26.3645 95.3705 26.1664 95.2649 25.9984C95.1594 25.8304 95.0173 25.7033 94.8385 25.6172C94.6597 25.531 94.4648 25.4879 94.2538 25.4879C94.0298 25.4879 93.8327 25.5407 93.6626 25.6462C93.4924 25.7518 93.3556 25.9015 93.2523 26.0953V25.5913H92.8129V28.6152H93.2523ZM97.142 29.9075L98.7767 25.5913H98.3631L97.4004 28.0983L96.3989 25.5913H95.9402L97.1807 28.6734L96.7026 29.9075H97.142Z" fill="#04091E"/>
  <path fill-rule="evenodd" clip-rule="evenodd" d="M16.4106 5.28076V26.2435C14.7519 27.265 12.7772 28.1065 10.5952 28.6588C8.79362 29.1154 7.02317 29.3311 5.36831 29.3311C3.77274 29.3311 2.28466 29.1308 0.975342 28.7511V7.78853C0.976046 7.78853 0.977277 7.78906 0.977981 7.78906C1.4655 7.93014 1.97765 8.04664 2.51145 8.13716C3.0053 8.22113 3.51745 8.28283 4.04491 8.32084C4.47631 8.35302 4.91791 8.36911 5.36831 8.36911C7.02387 8.36911 8.79362 8.15272 10.5952 7.6966C12.7772 7.1436 14.7519 6.30278 16.4106 5.28076ZM13.3434 10.0932C13.2137 10.1373 13.0834 10.1805 12.9524 10.2228L13.3433 10.2226L13.3434 10.0932Z" fill="#04091E"/>
  <path fill-rule="evenodd" clip-rule="evenodd" d="M22.1547 0.615234V23.7681C20.303 24.8963 18.0987 25.8257 15.663 26.4357C13.6519 26.9401 11.6756 27.1783 9.82834 27.1783C8.04724 27.1783 6.38613 26.9571 4.92456 26.5376V3.38501C4.92535 3.38501 4.92672 3.38559 4.92751 3.38559C5.47172 3.54141 6.04342 3.67009 6.63928 3.77006C7.19056 3.86281 7.76227 3.93095 8.35106 3.97294C8.83262 4.00847 9.32557 4.02624 9.82834 4.02624C11.6764 4.02624 13.6519 3.78724 15.663 3.28347C18.0987 2.6727 20.303 1.74404 22.1547 0.615234Z" fill="#04091E"/>
</svg>
