<svg id='slide5' width="124" height="32" viewBox="0 0 124 32" fill="none" xmlns="http://www.w3.org/2000/svg">
  <path fill-rule="evenodd" clip-rule="evenodd" d="M0.419678 15.0582V20.7334L16.5729 7.3837V1.7085L0.419678 15.0582Z" fill="#04091E"/>
  <path fill-rule="evenodd" clip-rule="evenodd" d="M0.419678 26.186V31.8611L16.5729 18.5114V12.8362L0.419678 26.186Z" fill="#04091E"/>
  <path fill-rule="evenodd" clip-rule="evenodd" d="M7.60156 15.0582V20.7334L23.7548 7.3837V1.7085L7.60156 15.0582Z" fill="#04091E"/>
  <path fill-rule="evenodd" clip-rule="evenodd" d="M7.60156 26.186V31.8611L23.7548 18.5114V12.8362L7.60156 26.186Z" fill="#04091E"/>
  <path d="M42.5614 21.0625C43.5254 21.0625 44.507 20.9705 45.506 20.7865C46.5051 20.6024 47.5348 20.3264 48.5952 19.9583V13.6748L49.0159 13.3067L50.5802 13.1752V11.8475H42.7192V13.1752L44.7173 13.3067L45.1379 13.6748V19.1696C44.8049 19.1959 44.5113 19.2156 44.2572 19.2287C44.003 19.2419 43.8059 19.2485 43.6656 19.2485C41.5711 19.2485 39.9345 18.5715 38.7558 17.2175C37.5771 15.8635 36.9877 13.9859 36.9877 11.5846C36.9877 9.24471 37.5639 7.40653 38.7164 6.07007C39.8688 4.73361 41.4528 4.06538 43.4685 4.06538C43.8716 4.06538 44.2572 4.10043 44.6253 4.17054C44.9933 4.24065 45.3526 4.3502 45.7032 4.49918L46.1107 4.98556L46.6234 7.83814H48.5952V3.2635C47.5961 2.96554 46.6212 2.74206 45.6703 2.59308C44.7195 2.4441 43.7971 2.36961 42.9032 2.36961C39.9411 2.36961 37.5639 3.20873 35.7718 4.88697C33.9796 6.56522 33.0835 8.79776 33.0835 11.5846C33.0835 14.3978 33.9599 16.6807 35.7126 18.4334C37.4653 20.1862 39.7483 21.0625 42.5614 21.0625ZM57.9776 20.9442C60.0809 20.9442 61.7679 20.3308 63.0386 19.1039C64.3094 17.8769 64.9447 16.2557 64.9447 14.24C64.9447 12.1104 64.3357 10.4212 63.1175 9.17241C61.8993 7.92359 60.2562 7.29918 58.1879 7.29918C56.0846 7.29918 54.3976 7.92797 53.1269 9.18556C51.8562 10.4431 51.2208 12.1104 51.2208 14.1874C51.2208 16.2118 51.8408 17.8441 53.0809 19.0841C54.321 20.3242 55.9532 20.9442 57.9776 20.9442ZM58.0565 19.5245C57.0837 19.5245 56.3235 19.0469 55.7757 18.0916C55.228 17.1364 54.9541 15.7999 54.9541 14.0823C54.9541 12.3909 55.2302 11.0763 55.7823 10.1386C56.3344 9.20089 57.1012 8.73204 58.0828 8.73204C59.0731 8.73204 59.8465 9.20966 60.403 10.1649C60.9594 11.1201 61.2377 12.4522 61.2377 14.1611C61.2377 15.8788 60.9616 17.2021 60.4095 18.1311C59.8574 19.06 59.0731 19.5245 58.0565 19.5245ZM70.7647 20.7339C71.8251 20.7339 72.7299 20.6835 73.4792 20.5827C74.2285 20.4819 74.8486 20.3264 75.3393 20.1161C76.724 19.4938 77.7778 18.6153 78.5008 17.4804C79.2238 16.3455 79.5853 14.9981 79.5853 13.4381C79.5853 11.6416 79.0902 10.1737 78.0999 9.03438C77.1096 7.89511 75.8389 7.32547 74.2877 7.32547C73.7005 7.32547 73.0871 7.42406 72.4473 7.62124C71.8076 7.81842 71.1196 8.12296 70.3835 8.53485V0.844727H69.0952L65.099 2.1067V3.15834H67.0445V20.6813L70.0285 20.7339H70.7647ZM71.2379 19.301C71.0101 19.301 70.8348 19.2988 70.7121 19.2945C70.5894 19.2901 70.4799 19.2835 70.3835 19.2747V9.63908C70.734 9.56897 71.0473 9.51639 71.3234 9.48133C71.5994 9.44628 71.8514 9.42875 72.0792 9.42875C73.3324 9.42875 74.2965 9.83407 74.9713 10.6447C75.6461 11.4553 75.9835 12.6187 75.9835 14.1348C75.9835 15.9051 75.6 17.2087 74.8332 18.0456C74.0664 18.8826 72.868 19.301 71.2379 19.301ZM87.2588 20.9442C89.3621 20.9442 91.0491 20.3308 92.3198 19.1039C93.5906 17.8769 94.2259 16.2557 94.2259 14.24C94.2259 12.1104 93.6169 10.4212 92.3987 9.17241C91.1806 7.92359 89.5374 7.29918 87.4691 7.29918C85.3659 7.29918 83.6788 7.92797 82.4081 9.18556C81.1374 10.4431 80.502 12.1104 80.502 14.1874C80.502 16.2118 81.122 17.8441 82.3621 19.0841C83.6022 20.3242 85.2344 20.9442 87.2588 20.9442ZM87.3377 19.5245C86.3649 19.5245 85.6047 19.0469 85.0569 18.0916C84.5092 17.1364 84.2353 15.7999 84.2353 14.0823C84.2353 12.3909 84.5114 11.0763 85.0635 10.1386C85.6156 9.20089 86.3824 8.73204 87.364 8.73204C88.3543 8.73204 89.1277 9.20966 89.6842 10.1649C90.2407 11.1201 90.5189 12.4522 90.5189 14.1611C90.5189 15.8788 90.2428 17.2021 89.6907 18.1311C89.1386 19.06 88.3543 19.5245 87.3377 19.5245ZM101.623 20.7339V19.5245L100.44 19.4193L100.072 19.0118V10.1255C100.598 9.97648 101.073 9.86255 101.498 9.78368C101.924 9.70481 102.298 9.66537 102.622 9.66537C103.464 9.66537 104.077 9.8998 104.463 10.3687C104.848 10.8375 105.041 11.5715 105.041 12.5705V19.0118L104.673 19.4193L103.516 19.5245V20.7339H110.102V19.5245L108.682 19.4193L108.328 19.0118V11.7949C108.328 10.2876 108.025 9.16584 107.421 8.42969C106.816 7.69354 105.9 7.32547 104.673 7.32547C104.121 7.32547 103.472 7.45692 102.728 7.71983C101.983 7.98274 101.098 8.39902 100.072 8.96866V7.37805H98.7708L94.8928 8.64002V9.71795H96.7332V19.0118L96.352 19.4193L94.9717 19.5245V20.7339H101.623ZM114.134 20.9705C114.818 20.9705 115.532 20.8303 116.277 20.5499C117.022 20.2694 117.85 19.8181 118.762 19.1959L119.117 20.7339H123.915V19.5508L122.482 19.4193L122.127 19.0381V12.071C122.127 10.3095 121.75 9.07382 120.996 8.36396C120.243 7.6541 118.941 7.29918 117.092 7.29918C115.445 7.29918 114.056 7.61029 112.925 8.23251C111.794 8.85473 111.229 9.5865 111.229 10.4278C111.229 10.7696 111.328 11.0194 111.525 11.1771C111.722 11.3348 112.035 11.4137 112.465 11.4137H114.949V8.88978C115.195 8.8372 115.423 8.79776 115.633 8.77147C115.843 8.74518 116.045 8.73204 116.238 8.73204C117.123 8.73204 117.771 8.95551 118.183 9.40246C118.595 9.84941 118.801 10.5593 118.801 11.532V12.3339C115.269 13.1314 113.021 13.8719 112.057 14.5555C111.093 15.2391 110.611 16.2118 110.611 17.4738C110.611 18.4992 110.94 19.3383 111.597 19.9912C112.255 20.6441 113.1 20.9705 114.134 20.9705ZM116.159 18.9067C115.545 18.9067 115.059 18.7248 114.7 18.3611C114.34 17.9974 114.161 17.5045 114.161 16.8823C114.161 16.0848 114.485 15.4538 115.133 14.9893C115.782 14.5248 116.991 14.0954 118.762 13.701V18.0916C118.236 18.3633 117.756 18.5671 117.322 18.7029C116.888 18.8387 116.501 18.9067 116.159 18.9067Z" fill="#04091E"/>
  <path d="M36.2668 30.4258V30.1166L35.7552 30.0798L35.6338 29.9731V28.2762L37.2018 25.766L37.6619 25.6703V25.3684H36.1233V25.6703L36.5834 25.7512L36.6533 25.858L35.3872 27.8714L34.2314 25.7991L34.3087 25.7144L34.7393 25.6703V25.3684H32.9873V25.6703L33.4474 25.7439L34.9491 28.3756V29.9731L34.8277 30.0798L34.3161 30.1166V30.4258H36.2668ZM38.559 30.492C39.0694 30.492 39.4896 30.316 39.8196 29.9639C40.1497 29.6117 40.3147 29.1596 40.3147 28.6075C40.3147 28.0554 40.1503 27.6033 39.8215 27.2511C39.4927 26.899 39.0718 26.723 38.559 26.723C38.0437 26.723 37.6234 26.8984 37.2983 27.2493C36.9732 27.6002 36.8106 28.0529 36.8106 28.6075C36.8106 29.1621 36.9744 29.6148 37.302 29.9657C37.6296 30.3166 38.0486 30.492 38.559 30.492ZM38.559 30.1681C38.2473 30.1681 37.9958 30.0264 37.8044 29.743C37.613 29.4596 37.5173 29.0811 37.5173 28.6075C37.5173 28.1339 37.6124 27.7554 37.8026 27.472C37.9928 27.1886 38.2449 27.0469 38.559 27.0469C38.8731 27.0469 39.1264 27.1892 39.319 27.4738C39.5117 27.7585 39.608 28.1364 39.608 28.6075C39.608 29.0835 39.5123 29.4627 39.3209 29.7449C39.1295 30.027 38.8755 30.1681 38.559 30.1681ZM42.0841 30.4994C42.2633 30.4994 42.4528 30.4589 42.6528 30.3779C42.8528 30.297 43.0706 30.1718 43.3061 30.0025V30.4258H44.4214V30.1534L44.0681 30.1166L43.9319 29.9951V26.723H43.6448L42.7688 27.0027V27.2383H43.3061V29.7927C43.1491 29.8688 42.9988 29.9252 42.8553 29.962C42.7117 29.9988 42.57 30.0172 42.4301 30.0172C42.1798 30.0172 41.9958 29.9528 41.878 29.824C41.7602 29.6952 41.7013 29.4933 41.7013 29.2185V26.723H41.4142L40.5382 27.0027V27.2383H41.0756V29.3473C41.0756 29.7203 41.1621 30.0056 41.3351 30.2031C41.5081 30.4006 41.7578 30.4994 42.0841 30.4994ZM46.4228 30.4258V30.1534L45.8964 30.1166L45.7676 29.9951V27.8419C45.9271 27.653 46.0737 27.5137 46.2074 27.4241C46.3412 27.3346 46.4682 27.2898 46.5884 27.2898C46.6669 27.2898 46.7387 27.3051 46.8037 27.3358C46.8687 27.3665 46.9258 27.4113 46.9749 27.4702H47.2141V26.8223C47.1356 26.788 47.0595 26.7628 46.9859 26.7469C46.9123 26.7309 46.8375 26.723 46.7614 26.723C46.7099 26.723 46.6712 26.7242 46.6454 26.7266C46.6197 26.7291 46.5958 26.734 46.5737 26.7414C46.4264 26.8591 46.286 26.9788 46.1522 27.1002C46.0185 27.2217 45.8903 27.345 45.7676 27.4702V26.7634H45.4805L44.6045 27.0321V27.2677H45.1345V29.9951L45.0057 30.1166L44.6045 30.1534V30.4258H46.4228ZM52.0855 30.4258V30.1166L51.5775 30.0798L51.4524 29.9731V25.7144H52.6044L52.7112 25.8285L52.8143 26.5279H53.2302V25.3684H48.9716V26.5279H49.3838L49.4905 25.8285L49.5973 25.7144H50.7494V29.9731L50.6205 30.0798L50.1163 30.1166V30.4258H52.0855ZM54.5948 30.4258V30.1534L54.0684 30.1166L53.9396 29.9951V27.8419C54.0991 27.653 54.2457 27.5137 54.3794 27.4241C54.5132 27.3346 54.6401 27.2898 54.7604 27.2898C54.8389 27.2898 54.9107 27.3051 54.9757 27.3358C55.0407 27.3665 55.0978 27.4113 55.1469 27.4702H55.3861V26.8223C55.3076 26.788 55.2315 26.7628 55.1579 26.7469C55.0843 26.7309 55.0094 26.723 54.9334 26.723C54.8818 26.723 54.8432 26.7242 54.8174 26.7266C54.7917 26.7291 54.7677 26.734 54.7457 26.7414C54.5984 26.8591 54.458 26.9788 54.3242 27.1002C54.1905 27.2217 54.0623 27.345 53.9396 27.4702V26.7634H53.6525L52.7765 27.0321V27.2677H53.3065V29.9951L53.1777 30.1166L52.7765 30.1534V30.4258H54.5948ZM56.92 30.4994C57.0991 30.4994 57.2887 30.4589 57.4887 30.3779C57.6887 30.297 57.9064 30.1718 58.142 30.0025V30.4258H59.2573V30.1534L58.9039 30.1166L58.7677 29.9951V26.723H58.4806L57.6046 27.0027V27.2383H58.142V29.7927C57.985 29.8688 57.8347 29.9252 57.6911 29.962C57.5476 29.9988 57.4059 30.0172 57.266 30.0172C57.0157 30.0172 56.8317 29.9528 56.7139 29.824C56.5961 29.6952 56.5372 29.4933 56.5372 29.2185V26.723H56.2501L55.3741 27.0027V27.2383H55.9115V29.3473C55.9115 29.7203 55.998 30.0056 56.171 30.2031C56.344 30.4006 56.5936 30.4994 56.92 30.4994ZM60.5114 30.492C60.9531 30.492 61.2985 30.392 61.5476 30.1921C61.7966 29.9921 61.9211 29.7154 61.9211 29.3621C61.9211 29.2271 61.8966 29.1038 61.8475 28.9921C61.7985 28.8805 61.7273 28.7879 61.6341 28.7142C61.5065 28.6087 61.3003 28.4909 61.0157 28.3609C60.9347 28.3241 60.8746 28.2959 60.8353 28.2762C60.585 28.156 60.4157 28.0468 60.3274 27.9486C60.239 27.8505 60.1949 27.7315 60.1949 27.5916C60.1949 27.4198 60.2501 27.2861 60.3605 27.1904C60.4709 27.0947 60.6243 27.0469 60.8206 27.0469C60.9114 27.0469 61.0022 27.0604 61.093 27.0874C61.1838 27.1143 61.2795 27.1548 61.3801 27.2088L61.439 27.7425H61.8107V26.8886C61.6831 26.8346 61.5463 26.7935 61.4003 26.7653C61.2543 26.7371 61.0967 26.723 60.9273 26.723C60.5028 26.723 60.174 26.815 59.9409 26.999C59.7078 27.1831 59.5912 27.4432 59.5912 27.7793C59.5912 28.0002 59.6593 28.1854 59.7955 28.3351C59.9317 28.4848 60.1887 28.6443 60.5666 28.8136C60.9004 28.9658 61.1114 29.0915 61.1997 29.1909C61.2881 29.2903 61.3322 29.416 61.3322 29.5682C61.3322 29.7498 61.2678 29.8964 61.139 30.008C61.0102 30.1197 60.839 30.1755 60.6255 30.1755C60.5176 30.1755 60.4102 30.1608 60.3035 30.1313C60.1967 30.1019 60.0906 30.0565 59.9851 29.9951L59.8931 29.3547H59.5323V30.3338C59.6722 30.3878 59.825 30.4276 59.9906 30.4534C60.1562 30.4792 60.3298 30.492 60.5114 30.492ZM63.4256 30.4479C63.5802 30.4479 63.7409 30.4338 63.9078 30.4055C64.0746 30.3773 64.2439 30.3362 64.4157 30.2822V30.0025C64.3225 30.0246 64.2323 30.0405 64.1452 30.0504C64.0581 30.0602 63.974 30.0651 63.893 30.0651C63.6575 30.0651 63.4943 30.0093 63.4035 29.8976C63.3127 29.786 63.2673 29.5669 63.2673 29.2406V27.253H64.4157V26.8996H63.2673V26.0972H62.9876L62.6637 26.8003L62.1668 27.0174V27.253H62.6416V29.686C62.6416 29.9755 62.6999 30.1749 62.8164 30.2841C62.933 30.3933 63.136 30.4479 63.4256 30.4479ZM66.2036 30.492C66.4465 30.492 66.6882 30.454 66.9287 30.3779C67.1692 30.3019 67.401 30.1902 67.6243 30.043V29.6271C67.3986 29.7768 67.1894 29.8872 66.9968 29.9583C66.8041 30.0295 66.6183 30.0651 66.4391 30.0651C66.0514 30.0651 65.7435 29.927 65.5153 29.651C65.2871 29.3749 65.173 29.0001 65.173 28.5265V28.4419H67.6133C67.6182 28.4124 67.6213 28.3817 67.6225 28.3498C67.6237 28.3179 67.6243 28.2713 67.6243 28.21C67.6243 27.7511 67.5023 27.3886 67.2581 27.1223C67.014 26.8561 66.6833 26.723 66.2661 26.723C65.7557 26.723 65.338 26.9015 65.0129 27.2585C64.6877 27.6155 64.5252 28.0762 64.5252 28.6406C64.5252 29.1903 64.6804 29.6363 64.9908 29.9786C65.3012 30.3209 65.7054 30.492 66.2036 30.492ZM66.9508 28.1253H65.2098C65.2319 27.8186 65.3343 27.5652 65.5171 27.3652C65.6999 27.1653 65.9165 27.0653 66.1668 27.0653C66.422 27.0653 66.6164 27.1462 66.7502 27.3082C66.8839 27.4702 66.9508 27.7033 66.9508 28.0075V28.1253ZM69.4232 30.492C69.6269 30.492 69.822 30.4552 70.0085 30.3816C70.195 30.308 70.3864 30.1927 70.5827 30.0356V30.4258H71.6979V30.1534L71.3372 30.1166L71.2084 29.9951V24.8789H70.925L70.0048 25.1476V25.3832H70.5827V26.8003C70.4624 26.7733 70.3459 26.7524 70.233 26.7377C70.1201 26.723 70.0134 26.7156 69.9128 26.7156C69.3361 26.7156 68.8681 26.9015 68.5086 27.2732C68.1491 27.645 67.9694 28.1302 67.9694 28.729C67.9694 29.2443 68.1062 29.6669 68.3798 29.997C68.6534 30.327 69.0012 30.492 69.4232 30.492ZM69.7619 30.0172C69.4183 30.0172 69.1441 29.8896 68.9392 29.6344C68.7343 29.3792 68.6319 29.0345 68.6319 28.6001C68.6319 28.1339 68.7503 27.7585 68.9871 27.4738C69.2239 27.1892 69.5349 27.0469 69.9201 27.0469C70.006 27.0469 70.1036 27.0573 70.2128 27.0782C70.322 27.099 70.4453 27.1291 70.5827 27.1683V29.7559C70.4404 29.8442 70.3011 29.9099 70.1649 29.9528C70.0287 29.9958 69.8944 30.0172 69.7619 30.0172ZM76.4589 30.5178C76.7092 30.5178 76.9631 30.4951 77.2208 30.4497C77.4784 30.4043 77.7312 30.3387 77.979 30.2528V29.0602H77.5741L77.3901 29.8994L77.2723 30.0172C77.1619 30.0516 77.0521 30.0767 76.9429 30.0927C76.8337 30.1086 76.7251 30.1166 76.6171 30.1166C76.0012 30.1166 75.519 29.9148 75.1706 29.5111C74.8222 29.1075 74.6479 28.5511 74.6479 27.8419C74.6479 27.1745 74.8148 26.6469 75.1485 26.2592C75.4822 25.8715 75.9337 25.6776 76.503 25.6776C76.6454 25.6776 76.7852 25.6936 76.9226 25.7255C77.0601 25.7574 77.2011 25.8065 77.3459 25.8727L77.4453 26.0089L77.5594 26.6935H77.979V25.5341C77.7091 25.4482 77.4496 25.3838 77.2005 25.3408C76.9515 25.2979 76.7141 25.2764 76.4883 25.2764C75.7031 25.2764 75.0706 25.5163 74.5909 25.996C74.1112 26.4757 73.8713 27.1082 73.8713 27.8934C73.8713 28.3842 73.9872 28.8363 74.2191 29.2498C74.451 29.6633 74.7694 29.9853 75.1743 30.216C75.351 30.3141 75.5473 30.389 75.7632 30.4405C75.9791 30.492 76.211 30.5178 76.4589 30.5178ZM79.8 30.4994C79.9791 30.4994 80.1687 30.4589 80.3687 30.3779C80.5687 30.297 80.7864 30.1718 81.022 30.0025V30.4258H82.1373V30.1534L81.7839 30.1166L81.6477 29.9951V26.723H81.3606L80.4846 27.0027V27.2383H81.022V29.7927C80.865 29.8688 80.7147 29.9252 80.5711 29.962C80.4276 29.9988 80.2859 30.0172 80.146 30.0172C79.8957 30.0172 79.7117 29.9528 79.5939 29.824C79.4761 29.6952 79.4172 29.4933 79.4172 29.2185V26.723H79.1301L78.2541 27.0027V27.2383H78.7915V29.3473C78.7915 29.7203 78.878 30.0056 79.051 30.2031C79.224 30.4006 79.4736 30.4994 79.8 30.4994ZM84.1386 30.4258V30.1534L83.6123 30.1166L83.4834 29.9951V27.8419C83.6429 27.653 83.7896 27.5137 83.9233 27.4241C84.057 27.3346 84.184 27.2898 84.3043 27.2898C84.3828 27.2898 84.4545 27.3051 84.5196 27.3358C84.5846 27.3665 84.6417 27.4113 84.6907 27.4702H84.93V26.8223C84.8515 26.788 84.7754 26.7628 84.7018 26.7469C84.6282 26.7309 84.5533 26.723 84.4772 26.723C84.4257 26.723 84.3871 26.7242 84.3613 26.7266C84.3355 26.7291 84.3116 26.734 84.2895 26.7414C84.1423 26.8591 84.0018 26.9788 83.8681 27.1002C83.7343 27.2217 83.6061 27.345 83.4834 27.4702V26.7634H83.1963L82.3203 27.0321V27.2677H82.8504V29.9951L82.7215 30.1166L82.3203 30.1534V30.4258H84.1386ZM86.7657 30.4258V30.1534L86.2393 30.1166L86.1105 29.9951V27.8419C86.27 27.653 86.4166 27.5137 86.5504 27.4241C86.6841 27.3346 86.8111 27.2898 86.9313 27.2898C87.0098 27.2898 87.0816 27.3051 87.1466 27.3358C87.2117 27.3665 87.2687 27.4113 87.3178 27.4702H87.557V26.8223C87.4785 26.788 87.4025 26.7628 87.3288 26.7469C87.2552 26.7309 87.1804 26.723 87.1043 26.723C87.0528 26.723 87.0141 26.7242 86.9884 26.7266C86.9626 26.7291 86.9387 26.734 86.9166 26.7414C86.7694 26.8591 86.6289 26.9788 86.4952 27.1002C86.3614 27.2217 86.2332 27.345 86.1105 27.4702V26.7634H85.8234L84.9474 27.0321V27.2677H85.4774V29.9951L85.3486 30.1166L84.9474 30.1534V30.4258H86.7657ZM88.5094 25.9574C88.6321 25.9574 88.7357 25.9156 88.8204 25.8322C88.9051 25.7488 88.9474 25.647 88.9474 25.5267C88.9474 25.4065 88.9051 25.3034 88.8204 25.2175C88.7357 25.1317 88.6321 25.0887 88.5094 25.0887C88.3891 25.0887 88.2867 25.131 88.202 25.2157C88.1174 25.3004 88.0751 25.404 88.0751 25.5267C88.0751 25.647 88.1174 25.7488 88.202 25.8322C88.2867 25.9156 88.3891 25.9574 88.5094 25.9574ZM89.3081 30.4258V30.1534L88.9032 30.1166L88.7744 29.9951V26.7634H88.4799L87.615 27.0321V27.2677H88.1413V29.9951L88.0125 30.1166L87.615 30.1534V30.4258H89.3081ZM91.1659 30.492C91.4088 30.492 91.6505 30.454 91.891 30.3779C92.1315 30.3019 92.3634 30.1902 92.5867 30.043V29.6271C92.3609 29.7768 92.1517 29.8872 91.9591 29.9583C91.7665 30.0295 91.5806 30.0651 91.4015 30.0651C91.0138 30.0651 90.7058 29.927 90.4776 29.651C90.2494 29.3749 90.1353 29.0001 90.1353 28.5265V28.4419H92.5756C92.5805 28.4124 92.5836 28.3817 92.5848 28.3498C92.586 28.3179 92.5867 28.2713 92.5867 28.21C92.5867 27.7511 92.4646 27.3886 92.2204 27.1223C91.9763 26.8561 91.6456 26.723 91.2285 26.723C90.7181 26.723 90.3003 26.9015 89.9752 27.2585C89.65 27.6155 89.4875 28.0762 89.4875 28.6406C89.4875 29.1903 89.6427 29.6363 89.9531 29.9786C90.2635 30.3209 90.6678 30.492 91.1659 30.492ZM91.9131 28.1253H90.1721C90.1942 27.8186 90.2966 27.5652 90.4794 27.3652C90.6622 27.1653 90.8788 27.0653 91.1291 27.0653C91.3843 27.0653 91.5788 27.1462 91.7125 27.3082C91.8462 27.4702 91.9131 27.7033 91.9131 28.0075V28.1253ZM94.7021 30.4258V30.1534L94.1758 30.1166L94.0469 29.9951V27.8419C94.2064 27.653 94.3531 27.5137 94.4868 27.4241C94.6205 27.3346 94.7475 27.2898 94.8677 27.2898C94.9463 27.2898 95.018 27.3051 95.0831 27.3358C95.1481 27.3665 95.2052 27.4113 95.2542 27.4702H95.4935V26.8223C95.415 26.788 95.3389 26.7628 95.2653 26.7469C95.1917 26.7309 95.1168 26.723 95.0407 26.723C94.9892 26.723 94.9506 26.7242 94.9248 26.7266C94.899 26.7291 94.8751 26.734 94.853 26.7414C94.7058 26.8591 94.5653 26.9788 94.4316 27.1002C94.2978 27.2217 94.1696 27.345 94.0469 27.4702V26.7634H93.7598L92.8838 27.0321V27.2677H93.4139V29.9951L93.285 30.1166L92.8838 30.1534V30.4258H94.7021Z" fill="#04091E"/>
</svg>
