<svg id='slide3' width="114" height="29" viewBox="0 0 114 29" fill="none" xmlns="http://www.w3.org/2000/svg">
  <path d="M37.3776 17.7187V8.33822C37.3776 7.78902 37.3337 6.66497 37.2458 4.96609L38.4211 9.08514L41.2111 17.7187H43.5177L46.3077 9.08514C46.3492 8.95578 46.3945 8.80983 46.4435 8.6473L46.5041 8.44432C46.7435 7.6357 47.0624 6.47629 47.461 4.96609C47.3951 6.5771 47.3604 7.48878 47.3567 7.70114C47.353 7.9135 47.3512 8.12586 47.3512 8.33822V17.7187H50.229V2.24202H45.9123L43.0674 11.3259L42.3754 13.8083L41.8481 11.7323L41.6065 10.8975L38.8385 2.24202H34.4998V17.7187H37.3776ZM56.0312 17.9384C57.774 17.9384 59.0774 17.1585 59.9415 15.5987H60.0074C60.0807 16.3383 60.3022 16.8985 60.672 17.2793C61.0418 17.6601 61.6148 17.8505 62.391 17.8505C62.6107 17.8505 62.8029 17.8432 62.9677 17.8285C63.1324 17.8139 63.288 17.7956 63.4345 17.7736C63.5809 17.7516 63.7274 17.7223 63.8739 17.6857C64.0203 17.6491 64.1851 17.6088 64.3681 17.5649V15.8953C64.1485 15.9392 63.9215 15.9612 63.6871 15.9612C63.3356 15.9612 63.0848 15.8349 62.9347 15.5823C62.7846 15.3296 62.7095 14.8701 62.7095 14.2038V9.876C62.7095 8.51397 62.3031 7.46315 61.4903 6.72355C60.6775 5.98395 59.5205 5.61416 58.0193 5.61416C56.5328 5.61416 55.3593 5.91256 54.4989 6.50936C53.6385 7.10617 53.1094 7.98307 52.9117 9.14006L56.13 9.29384C56.1959 8.69338 56.3625 8.26316 56.6298 8.00321C56.8971 7.74325 57.3163 7.61327 57.8875 7.61327C58.5026 7.61327 58.9456 7.80183 59.2166 8.17895C59.4875 8.55607 59.623 9.13274 59.623 9.90895V10.5131L57.0637 10.557C55.5406 10.5717 54.3781 10.9012 53.5762 11.5456C52.7744 12.19 52.3735 13.1273 52.3735 14.3575C52.3735 15.4926 52.6957 16.3731 53.3401 16.9992C53.9845 17.6253 54.8815 17.9384 56.0312 17.9384ZM57.0198 15.7855C56.5877 15.7855 56.2417 15.6482 55.9818 15.3736C55.7218 15.099 55.5918 14.6797 55.5918 14.1159C55.5918 13.6765 55.6705 13.325 55.828 13.0614C55.9854 12.7978 56.2142 12.6019 56.5145 12.4738C56.8147 12.3456 57.3236 12.2669 58.0413 12.2376L59.623 12.2156V12.8198C59.623 13.3397 59.5095 13.8321 59.2825 14.2971C59.0555 14.7621 58.7424 15.1264 58.3433 15.39C57.9443 15.6537 57.5031 15.7855 57.0198 15.7855ZM68.8632 17.7187V11.8861C68.8632 10.6632 69.0774 9.74053 69.5057 9.1181C69.9341 8.49566 70.5327 8.18444 71.3016 8.18444C71.6824 8.18444 72.1218 8.23937 72.6197 8.34921V5.76793C72.3781 5.65809 72.0595 5.60317 71.6641 5.60317C71.1808 5.60317 70.7781 5.68555 70.4559 5.85031C70.1337 6.01508 69.8554 6.26771 69.6211 6.60822C69.3867 6.94873 69.1195 7.53638 68.8192 8.37117H68.7753C68.7753 8.15149 68.757 7.70663 68.7204 7.0366C68.6838 6.36657 68.6545 5.96565 68.6325 5.83384H65.6887C65.7107 6.17068 65.7308 6.55696 65.7492 6.99266C65.7675 7.42837 65.7766 7.97208 65.7766 8.62381V17.7187H68.8632ZM77.5541 17.9164C78.528 17.9164 79.3958 17.7919 80.1574 17.5429V15.6317C79.7107 15.7342 79.3665 15.7855 79.1249 15.7855C78.6635 15.7855 78.323 15.6482 78.1033 15.3736C77.8836 15.099 77.7738 14.6724 77.7738 14.0939V7.92083H80.0256V5.83384H77.7738V3.04387H75.8406L74.874 5.83384H73.2154V7.92083H74.7202V14.9287C74.7202 15.9319 74.9655 16.6807 75.4562 17.175C75.9468 17.6693 76.6461 17.9164 77.5541 17.9164ZM85.0698 3.69193V1.41821H81.9832V3.69193H85.0698ZM85.0698 17.7187V5.83384H81.9832V17.7187H85.0698ZM91.3003 17.7187V11.3479C91.3003 10.3447 91.5291 9.52268 91.9868 8.88194C92.4445 8.2412 93.0468 7.92083 93.7937 7.92083C95.207 7.92083 95.9136 8.96432 95.9136 11.0513V17.7187H98.9892V10.1726C98.9892 8.67873 98.6524 7.5437 97.9787 6.76749C97.305 5.99128 96.3384 5.60317 95.0788 5.60317C94.2074 5.60317 93.4568 5.80821 92.8271 6.21828C92.1973 6.62836 91.6738 7.28741 91.2564 8.19543H91.2124C91.2124 7.96842 91.1941 7.55286 91.1575 6.94873C91.1209 6.3446 91.0916 5.97297 91.0696 5.83384H88.1259C88.1478 6.15604 88.168 6.52035 88.1863 6.92676C88.2046 7.33317 88.2138 7.85492 88.2138 8.492V17.7187H91.3003ZM107.186 17.9384C109.075 17.9384 110.554 17.391 111.623 16.2962C112.693 15.2015 113.227 13.6912 113.227 11.7653C113.227 9.78081 112.716 8.2595 111.695 7.20136C110.673 6.14322 109.192 5.61416 107.252 5.61416C105.355 5.61416 103.88 6.16153 102.825 7.25628C101.771 8.35104 101.243 9.85403 101.243 11.7653C101.243 13.6838 101.771 15.1923 102.825 16.2907C103.88 17.3892 105.333 17.9384 107.186 17.9384ZM107.153 15.8294C106.289 15.8294 105.628 15.4834 105.17 14.7914C104.713 14.0994 104.484 13.0907 104.484 11.7653C104.484 9.07782 105.421 7.73409 107.296 7.73409C108.174 7.73409 108.844 8.05263 109.306 8.68971C109.767 9.3268 109.998 10.352 109.998 11.7653C109.998 14.4747 109.05 15.8294 107.153 15.8294Z" fill="#04091E"/>
  <path opacity="0.595853" d="M65.0955 27.4105C65.3298 27.4105 65.5469 27.3731 65.7466 27.2982C65.9464 27.2233 66.1145 27.1234 66.2508 26.9985C66.3872 26.8737 66.5005 26.7469 66.5908 26.6182C66.6811 26.4895 66.755 26.3561 66.8126 26.2178L66.1327 26.0046C66.0482 26.2158 65.9128 26.3945 65.7265 26.5404C65.5402 26.6864 65.326 26.7594 65.084 26.7594C64.7114 26.7594 64.4137 26.6038 64.1909 26.2927C63.9681 25.9815 63.8567 25.559 63.8567 25.025C63.8567 24.4987 63.9671 24.079 64.188 23.766C64.4089 23.4529 64.7075 23.2963 65.084 23.2963C65.4797 23.2963 65.8004 23.5172 66.0463 23.959L66.6974 23.7458C66.563 23.4346 66.3584 23.1734 66.0837 22.9621C65.8091 22.7509 65.4797 22.6452 65.0955 22.6452C64.5001 22.6452 64.0142 22.8594 63.6377 23.2877C63.2612 23.716 63.073 24.2951 63.073 25.025C63.073 25.7664 63.2641 26.3493 63.6463 26.7738C64.0286 27.1983 64.5116 27.4105 65.0955 27.4105ZM68.6854 27.4105C68.9158 27.4105 69.1223 27.3721 69.3048 27.2953C69.4873 27.2185 69.6342 27.1195 69.7456 26.9985C69.857 26.8775 69.9492 26.7373 70.0222 26.5779C70.0952 26.4185 70.1461 26.2619 70.1749 26.1083C70.2037 25.9546 70.2181 25.801 70.2181 25.6473C70.2181 25.1518 70.0875 24.733 69.8263 24.3912C69.565 24.0493 69.1847 23.8783 68.6854 23.8783C68.1821 23.8783 67.7999 24.0493 67.5387 24.3912C67.2775 24.733 67.1469 25.1518 67.1469 25.6473C67.1469 25.8087 67.1613 25.9671 67.1901 26.1227C67.2189 26.2783 67.2707 26.4358 67.3456 26.5952C67.4206 26.7546 67.5147 26.8929 67.628 27.0101C67.7413 27.1272 67.8892 27.2233 68.0717 27.2982C68.2542 27.3731 68.4587 27.4105 68.6854 27.4105ZM68.6854 26.7882C68.4741 26.7882 68.2897 26.6941 68.1322 26.5059C67.9747 26.3176 67.8959 26.0315 67.8959 25.6473C67.8959 25.2555 67.9756 24.9664 68.1351 24.7801C68.2945 24.5938 68.4779 24.5006 68.6854 24.5006C68.8928 24.5006 69.0753 24.5938 69.2328 24.7801C69.3903 24.9664 69.469 25.2555 69.469 25.6473C69.469 26.0315 69.3903 26.3176 69.2328 26.5059C69.0753 26.6941 68.8928 26.7882 68.6854 26.7882ZM71.6068 27.3068V22.5991H70.8807V27.3068H71.6068ZM73.8079 27.4105C74.0384 27.4105 74.2449 27.3721 74.4274 27.2953C74.6098 27.2185 74.7568 27.1195 74.8682 26.9985C74.9796 26.8775 75.0718 26.7373 75.1448 26.5779C75.2177 26.4185 75.2686 26.2619 75.2974 26.1083C75.3263 25.9546 75.3407 25.801 75.3407 25.6473C75.3407 25.1518 75.2101 24.733 74.9488 24.3912C74.6876 24.0493 74.3073 23.8783 73.8079 23.8783C73.3047 23.8783 72.9225 24.0493 72.6613 24.3912C72.4 24.733 72.2694 25.1518 72.2694 25.6473C72.2694 25.8087 72.2838 25.9671 72.3126 26.1227C72.3415 26.2783 72.3933 26.4358 72.4682 26.5952C72.5431 26.7546 72.6372 26.8929 72.7506 27.0101C72.8639 27.1272 73.0118 27.2233 73.1943 27.2982C73.3767 27.3731 73.5813 27.4105 73.8079 27.4105ZM73.8079 26.7882C73.5966 26.7882 73.4123 26.6941 73.2548 26.5059C73.0973 26.3176 73.0185 26.0315 73.0185 25.6473C73.0185 25.2555 73.0982 24.9664 73.2576 24.7801C73.4171 24.5938 73.6005 24.5006 73.8079 24.5006C74.0154 24.5006 74.1978 24.5938 74.3553 24.7801C74.5128 24.9664 74.5916 25.2555 74.5916 25.6473C74.5916 26.0315 74.5128 26.3176 74.3553 26.5059C74.1978 26.6941 74.0154 26.7882 73.8079 26.7882ZM76.6717 27.3068V25.6127C76.6717 25.2901 76.738 25.0317 76.8705 24.8377C77.0031 24.6437 77.1942 24.5467 77.4439 24.5467C77.586 24.5467 77.73 24.5698 77.876 24.6159V23.9532C77.7646 23.9033 77.6206 23.8783 77.4439 23.8783C77.2556 23.8783 77.0933 23.9244 76.957 24.0166C76.8206 24.1088 76.7159 24.2164 76.6429 24.3393V23.982H75.9399V27.3068H76.6717ZM79.4491 27.4105C79.8678 27.4105 80.1915 27.3155 80.42 27.1253C80.6486 26.9352 80.7629 26.7037 80.7629 26.431C80.7629 25.9892 80.421 25.6588 79.7372 25.4399C79.718 25.4322 79.6873 25.4226 79.645 25.4111C79.4837 25.3573 79.3588 25.3131 79.2705 25.2785C79.1821 25.244 79.0966 25.1892 79.0141 25.1143C78.9315 25.0394 78.8902 24.9539 78.8902 24.8579C78.8902 24.7426 78.9372 24.6495 79.0313 24.5784C79.1255 24.5074 79.2609 24.4718 79.4376 24.4718C79.7603 24.4718 80.0349 24.6274 80.2616 24.9386L80.7456 24.6447C80.6265 24.4219 80.446 24.2385 80.2039 24.0944C79.9619 23.9504 79.7046 23.8783 79.4318 23.8783C79.0669 23.8783 78.7615 23.9667 78.5156 24.1434C78.2698 24.3201 78.1468 24.5544 78.1468 24.8464C78.1468 24.9962 78.1737 25.1278 78.2275 25.2411C78.2813 25.3544 78.36 25.4485 78.4638 25.5234C78.5675 25.5983 78.6664 25.6579 78.7605 25.7021C78.8546 25.7462 78.9708 25.7914 79.1091 25.8375C79.1245 25.8413 79.1495 25.849 79.184 25.8605C79.3761 25.922 79.5202 25.971 79.6162 26.0074C79.7122 26.0439 79.8035 26.0987 79.8899 26.1717C79.9763 26.2447 80.0196 26.3292 80.0196 26.4252C80.0196 26.5443 79.9667 26.6394 79.8611 26.7104C79.7554 26.7815 79.6124 26.817 79.4318 26.817C79.063 26.817 78.7634 26.648 78.5329 26.31L78.0086 26.6154C78.143 26.8612 78.336 27.0552 78.5876 27.1973C78.8393 27.3395 79.1264 27.4105 79.4491 27.4105ZM84.1222 27.4105C84.3527 27.4105 84.5592 27.3721 84.7417 27.2953C84.9241 27.2185 85.0711 27.1195 85.1825 26.9985C85.2939 26.8775 85.3861 26.7373 85.459 26.5779C85.532 26.4185 85.5829 26.2619 85.6117 26.1083C85.6405 25.9546 85.655 25.801 85.655 25.6473C85.655 25.1518 85.5243 24.733 85.2631 24.3912C85.0019 24.0493 84.6216 23.8783 84.1222 23.8783C83.619 23.8783 83.2368 24.0493 82.9755 24.3912C82.7143 24.733 82.5837 25.1518 82.5837 25.6473C82.5837 25.8087 82.5981 25.9671 82.6269 26.1227C82.6557 26.2783 82.7076 26.4358 82.7825 26.5952C82.8574 26.7546 82.9515 26.8929 83.0649 27.0101C83.1782 27.1272 83.3261 27.2233 83.5085 27.2982C83.691 27.3731 83.8956 27.4105 84.1222 27.4105ZM84.1222 26.7882C83.9109 26.7882 83.7265 26.6941 83.569 26.5059C83.4115 26.3176 83.3328 26.0315 83.3328 25.6473C83.3328 25.2555 83.4125 24.9664 83.5719 24.7801C83.7313 24.5938 83.9148 24.5006 84.1222 24.5006C84.3297 24.5006 84.5121 24.5938 84.6696 24.7801C84.8271 24.9664 84.9059 25.2555 84.9059 25.6473C84.9059 26.0315 84.8271 26.3176 84.6696 26.5059C84.5121 26.6941 84.3297 26.7882 84.1222 26.7882ZM87.2396 27.3068V24.6044H87.931V23.982H87.2396V23.6766C87.2396 23.5153 87.2674 23.3981 87.3231 23.3252C87.3788 23.2522 87.4662 23.2157 87.5853 23.2157H88.0059V22.5991H87.4816C87.1704 22.5991 86.9294 22.6846 86.7584 22.8555C86.5875 23.0265 86.502 23.2829 86.502 23.6248V23.982H85.9949V24.6044H86.502V27.3068H87.2396ZM90.0573 28.6667C90.3454 28.6667 90.5864 28.5975 90.7804 28.4593C90.9744 28.321 91.1329 28.0828 91.2558 27.7447L92.6329 23.982H91.8378L91.3134 25.6934C91.1905 26.1352 91.1194 26.3906 91.1002 26.4598H91.0772C91.0272 26.2639 90.9542 26.0084 90.8582 25.6934L90.2877 23.982H89.4868L90.7314 27.2261L90.6219 27.5546C90.5566 27.739 90.4693 27.8686 90.3598 27.9435C90.2503 28.0184 90.1091 28.0559 89.9363 28.0559H89.8325V28.6667H90.0573ZM94.4192 27.4105C94.6497 27.4105 94.8562 27.3721 95.0387 27.2953C95.2211 27.2185 95.3681 27.1195 95.4795 26.9985C95.5909 26.8775 95.6831 26.7373 95.756 26.5779C95.829 26.4185 95.8799 26.2619 95.9087 26.1083C95.9376 25.9546 95.952 25.801 95.952 25.6473C95.952 25.1518 95.8214 24.733 95.5601 24.3912C95.2989 24.0493 94.9186 23.8783 94.4192 23.8783C93.916 23.8783 93.5338 24.0493 93.2725 24.3912C93.0113 24.733 92.8807 25.1518 92.8807 25.6473C92.8807 25.8087 92.8951 25.9671 92.9239 26.1227C92.9527 26.2783 93.0046 26.4358 93.0795 26.5952C93.1544 26.7546 93.2485 26.8929 93.3619 27.0101C93.4752 27.1272 93.6231 27.2233 93.8055 27.2982C93.988 27.3731 94.1926 27.4105 94.4192 27.4105ZM94.4192 26.7882C94.2079 26.7882 94.0236 26.6941 93.8661 26.5059C93.7086 26.3176 93.6298 26.0315 93.6298 25.6473C93.6298 25.2555 93.7095 24.9664 93.8689 24.7801C94.0284 24.5938 94.2118 24.5006 94.4192 24.5006C94.6267 24.5006 94.8091 24.5938 94.9666 24.7801C95.1241 24.9664 95.2029 25.2555 95.2029 25.6473C95.2029 26.0315 95.1241 26.3176 94.9666 26.5059C94.8091 26.6941 94.6267 26.7882 94.4192 26.7882ZM97.6287 27.4105C97.8554 27.4105 98.0446 27.3587 98.1963 27.255C98.3481 27.1512 98.4508 27.0398 98.5046 26.9208H98.5104V27.3068H99.2133V23.982H98.4873V25.8432C98.4873 26.1006 98.4259 26.3224 98.3029 26.5088C98.18 26.6951 98.0091 26.7882 97.7901 26.7882C97.4252 26.7882 97.2427 26.5289 97.2427 26.0103V23.982H96.5109V26.1025C96.5109 26.3522 96.5455 26.5673 96.6146 26.7479C96.6838 26.9284 96.776 27.0638 96.8912 27.1541C97.0064 27.2444 97.1246 27.3097 97.2456 27.35C97.3666 27.3904 97.4943 27.4105 97.6287 27.4105ZM100.74 27.3068V25.6127C100.74 25.2901 100.807 25.0317 100.939 24.8377C101.072 24.6437 101.263 24.5467 101.512 24.5467C101.655 24.5467 101.799 24.5698 101.945 24.6159V23.9532C101.833 23.9033 101.689 23.8783 101.512 23.8783C101.324 23.8783 101.162 23.9244 101.026 24.0166C100.889 24.1088 100.785 24.2164 100.712 24.3393V23.982H100.009V27.3068H100.74ZM104.555 27.3068V22.5991H103.829V27.3068H104.555ZM106.232 23.4865V22.6856H105.448V23.4865H106.232ZM106.203 27.3068V23.982H105.483V27.3068H106.203ZM108.053 27.3068V24.6044H108.744V23.982H108.053V23.6766C108.053 23.5153 108.08 23.3981 108.136 23.3252C108.192 23.2522 108.279 23.2157 108.398 23.2157H108.819V22.5991H108.295C107.983 22.5991 107.742 22.6846 107.571 22.8555C107.4 23.0265 107.315 23.2829 107.315 23.6248V23.982H106.808V24.6044H107.315V27.3068H108.053ZM110.605 27.4105C110.966 27.4105 111.268 27.3279 111.51 27.1628C111.752 26.9976 111.927 26.7921 112.034 26.5462L111.423 26.3388C111.35 26.4809 111.244 26.5971 111.104 26.6874C110.963 26.7777 110.801 26.8228 110.617 26.8228C110.352 26.8228 110.143 26.7316 109.991 26.5491C109.84 26.3666 109.764 26.1486 109.764 25.8951H112.069C112.08 25.799 112.086 25.7011 112.086 25.6012C112.086 25.0903 111.944 24.6754 111.66 24.3566C111.375 24.0377 111.014 23.8783 110.576 23.8783C110.131 23.8783 109.761 24.0368 109.467 24.3537C109.173 24.6706 109.026 25.0961 109.026 25.63C109.026 26.1717 109.173 26.6038 109.467 26.9265C109.761 27.2492 110.14 27.4105 110.605 27.4105ZM111.343 25.3823H109.775C109.779 25.1364 109.853 24.9222 109.997 24.7398C110.141 24.5573 110.334 24.4661 110.576 24.4661C110.818 24.4661 111.007 24.5554 111.141 24.734C111.275 24.9126 111.343 25.1287 111.343 25.3823Z" fill="#04091E"/>
  <path d="M7.17977 4.10819L7.17977 27.0568C7.17966 27.2765 7.06656 27.4797 6.8824 27.5911C6.69825 27.7024 6.47051 27.7054 6.28364 27.5989L0.852528 24.4978C0.660832 24.3885 0.541861 24.181 0.541748 23.9557L0.541748 1.00702C0.541858 0.787397 0.654963 0.584209 0.839118 0.472811C1.02327 0.361414 1.25101 0.358419 1.43788 0.464937L6.86899 3.5661C7.06069 3.67537 7.17966 3.88289 7.17977 4.10819Z" fill="#04091E"/>
  <path d="M16.0291 4.10819L16.0291 27.0568C16.029 27.2765 15.9159 27.4797 15.7318 27.5911C15.5476 27.7024 15.3199 27.7054 15.133 27.5989L9.70189 24.4978C9.5102 24.3885 9.39123 24.181 9.39111 23.9557L9.39111 1.00702C9.39122 0.787397 9.50433 0.584209 9.68848 0.472811C9.87264 0.361414 10.1004 0.358419 10.2872 0.464937L15.7184 3.5661C15.9101 3.67537 16.029 3.88289 16.0291 4.10819Z" fill="#04091E"/>
  <path d="M24.878 4.10819L24.878 27.0568C24.8779 27.2765 24.7648 27.4797 24.5806 27.5911C24.3965 27.7024 24.1687 27.7054 23.9819 27.5989L18.5508 24.4978C18.3591 24.3885 18.2401 24.181 18.24 23.9557L18.24 1.00702C18.2401 0.787397 18.3532 0.584209 18.5374 0.472811C18.7215 0.361414 18.9493 0.358419 19.1361 0.464937L24.5672 3.5661C24.7589 3.67537 24.8779 3.88289 24.878 4.10819Z" fill="#04091E"/>
</svg>
