<svg width='0' height='0'>

  <symbol id='facebook' width="18" height="36" viewBox="0 0 18 36" xmlns="http://www.w3.org/2000/svg">
    <path d="M4.46666 36V19.1078H0V13.0257H4.46666V7.8309C4.46666 3.74875 7.10514 0 13.1848 0C15.6463 0 17.4665 0.23598 17.4665 0.23598L17.3231 5.91556C17.3231 5.91556 15.4668 5.89748 13.4411 5.89748C11.2487 5.89748 10.8974 6.90782 10.8974 8.58474V13.0257H17.4973L17.2102 19.1078H10.8974V36H4.46666Z" />
  </symbol>

  <symbol id='facebook-mobile' width="14" height="26" viewBox="0 0 14 26" fill="none" xmlns="http://www.w3.org/2000/svg">
    <path d="M3.48296 26V13.8H0V9.40748H3.48296V5.65565C3.48296 2.70743 5.54035 0 10.281 0C12.2005 0 13.6198 0.17043 13.6198 0.17043L13.5079 4.27235C13.5079 4.27235 12.0605 4.25929 10.4809 4.25929C8.77134 4.25929 8.49744 4.98898 8.49744 6.20009V9.40748H13.6438L13.4199 13.8H8.49744V26H3.48296Z" fill="#0B0B0B"/>
  </symbol>

  <symbol id='linkedin' width="38" height="36" viewBox="0 0 38 36" xmlns="http://www.w3.org/2000/svg">
    <path d="M8.54952 36V11.7109H0.476315V36H8.54952ZM4.51396 8.3926C7.32923 8.3926 9.0816 6.52748 9.0816 4.1967C9.02915 1.81335 7.32934 0 4.56739 0C1.80587 0 0 1.81339 0 4.1967C0 6.52759 1.75194 8.3926 4.46126 8.3926H4.51371H4.51396ZM13.018 36H21.0912V22.4358C21.0912 21.7098 21.1437 20.9846 21.3569 20.4657C21.9405 19.0153 23.2689 17.5131 25.499 17.5131C28.4204 17.5131 29.5891 19.7405 29.5891 23.0057V35.9998H37.6618V22.0727C37.6618 14.612 33.6789 11.1406 28.3672 11.1406C24.012 11.1406 22.0998 13.575 21.0375 15.2331H21.0914V11.7104H13.0182C13.1241 13.9895 13.0182 35.9995 13.0182 35.9995L13.018 36Z" />
  </symbol>

  <symbol id='linkedin-mobile' width="30" height="26" viewBox="0 0 30 26" fill="none" xmlns="http://www.w3.org/2000/svg">
    <path d="M6.92884 26V8.45784H0.633622V26H6.92884ZM3.78204 6.06132C5.9773 6.06132 7.34374 4.71429 7.34374 3.03095C7.30284 1.30964 5.97738 0 3.8237 0C1.67036 0 0.262207 1.30967 0.262207 3.03095C0.262207 4.71437 1.62831 6.06132 3.74095 6.06132H3.78185H3.78204ZM10.4132 26H16.7084V16.2036C16.7084 15.6793 16.7493 15.1556 16.9156 14.7808C17.3707 13.7333 18.4065 12.6483 20.1455 12.6483C22.4235 12.6483 23.3348 14.257 23.3348 16.6152V25.9999H29.6296V15.9414C29.6296 10.5531 26.5239 8.046 22.382 8.046C18.986 8.046 17.4949 9.80418 16.6666 11.0017H16.7086V8.45748H10.4134C10.496 10.1035 10.4134 25.9996 10.4134 25.9996L10.4132 26Z" fill="#0B0B0B"/>
  </symbol>

  <symbol id='instagram' width="36" height="36" viewBox="0 0 36 36" xmlns="http://www.w3.org/2000/svg">
    <path d="M27.6092 10.5519C28.8022 10.5519 29.7692 9.58487 29.7692 8.39193C29.7692 7.199 28.8022 6.23193 27.6092 6.23193C26.4163 6.23193 25.4492 7.199 25.4492 8.39193C25.4492 9.58487 26.4163 10.5519 27.6092 10.5519Z" />
    <path d="M17.9997 8.75635C16.1716 8.75635 14.3846 9.29844 12.8646 10.3141C11.3446 11.3297 10.1599 12.7733 9.4603 14.4622C8.76072 16.1511 8.57768 18.0096 8.93432 19.8026C9.29096 21.5955 10.1713 23.2425 11.4639 24.5351C12.7566 25.8278 14.4035 26.7081 16.1965 27.0647C17.9895 27.4214 19.8479 27.2383 21.5369 26.5388C23.2258 25.8392 24.6694 24.6545 25.685 23.1345C26.7006 21.6145 27.2427 19.8274 27.2427 17.9993C27.2427 15.548 26.2689 13.197 24.5355 11.4636C22.8021 9.73016 20.4511 8.75635 17.9997 8.75635ZM17.9997 23.9993C16.813 23.9993 15.653 23.6475 14.6663 22.9882C13.6796 22.3289 12.9106 21.3918 12.4564 20.2954C12.0023 19.1991 11.8835 17.9927 12.115 16.8288C12.3465 15.6649 12.918 14.5958 13.7571 13.7567C14.5962 12.9176 15.6653 12.3461 16.8292 12.1146C17.9931 11.8831 19.1995 12.0019 20.2958 12.4561C21.3922 12.9102 22.3292 13.6792 22.9885 14.6659C23.6478 15.6526 23.9997 16.8127 23.9997 17.9993C23.9997 19.5906 23.3676 21.1168 22.2424 22.242C21.1171 23.3672 19.591 23.9993 17.9997 23.9993Z" />
    <path d="M18 3.243C22.806 3.243 23.376 3.261 25.2735 3.348C26.4148 3.36155 27.5452 3.5711 28.6155 3.9675C29.392 4.26704 30.0972 4.72582 30.6857 5.31432C31.2742 5.90282 31.733 6.60801 32.0325 7.3845C32.4289 8.45479 32.6385 9.58524 32.652 10.7265C32.739 12.624 32.757 13.194 32.757 18.0015C32.757 22.809 32.739 23.376 32.652 25.2735C32.6385 26.4148 32.4289 27.5452 32.0325 28.6155C31.733 29.392 31.2742 30.0972 30.6857 30.6857C30.0972 31.2742 29.392 31.733 28.6155 32.0325C27.5452 32.4289 26.4148 32.6385 25.2735 32.652C23.376 32.739 22.806 32.757 18 32.757C13.194 32.757 12.624 32.739 10.7265 32.652C9.58524 32.6385 8.45479 32.4289 7.3845 32.0325C6.60801 31.733 5.90282 31.2742 5.31432 30.6857C4.72582 30.0972 4.26704 29.392 3.9675 28.6155C3.5711 27.5452 3.36155 26.4148 3.348 25.2735C3.261 23.376 3.243 22.806 3.243 18C3.243 13.194 3.261 12.624 3.348 10.7265C3.36155 9.58524 3.5711 8.45479 3.9675 7.3845C4.26704 6.60801 4.72582 5.90282 5.31432 5.31432C5.90282 4.72582 6.60801 4.26704 7.3845 3.9675C8.45479 3.5711 9.58524 3.36155 10.7265 3.348C12.624 3.261 13.194 3.243 18 3.243ZM18 0C13.1115 0 12.498 0.021 10.578 0.108C9.08516 0.138144 7.60824 0.421154 6.21 0.945C5.01409 1.40745 3.92799 2.11467 3.02133 3.02133C2.11467 3.92799 1.40745 5.01409 0.945 6.21C0.420988 7.60871 0.137975 9.08616 0.108 10.5795C0.021 12.4995 0 13.11 0 18C0 22.89 0.021 23.502 0.108 25.422C0.138144 26.9148 0.421154 28.3918 0.945 29.79C1.40745 30.9859 2.11467 32.072 3.02133 32.9787C3.92799 33.8853 5.01409 34.5926 6.21 35.055C7.60871 35.579 9.08616 35.862 10.5795 35.892C12.4995 35.979 13.1115 36 18 36C22.8885 36 23.502 35.979 25.422 35.892C26.9153 35.862 28.3928 35.579 29.7915 35.055C30.9874 34.5926 32.0735 33.8853 32.9802 32.9787C33.8868 32.072 34.5941 30.9859 35.0565 29.79C35.58 28.3912 35.8625 26.9138 35.892 25.4205C35.979 23.5005 36 22.89 36 18C36 13.11 35.979 12.498 35.892 10.578C35.8619 9.08516 35.5788 7.60824 35.055 6.21C34.5926 5.01409 33.8853 3.92799 32.9787 3.02133C32.072 2.11467 30.9859 1.40745 29.79 0.945C28.3912 0.4215 26.9138 0.138995 25.4205 0.1095C23.5005 0.0194999 22.89 0 18 0Z" />
  </symbol>

  <svg id='instagram-mobile' width="29" height="26" viewBox="0 0 29 26" fill="none" xmlns="http://www.w3.org/2000/svg">
    <path d="M21.6489 7.62098C22.5791 7.62098 23.3332 6.92254 23.3332 6.06098C23.3332 5.19941 22.5791 4.50098 21.6489 4.50098C20.7187 4.50098 19.9646 5.19941 19.9646 6.06098C19.9646 6.92254 20.7187 7.62098 21.6489 7.62098Z" fill="#0B0B0B"/>
    <path d="M14.1559 6.32422C12.7304 6.32422 11.3369 6.71573 10.1517 7.44924C8.96642 8.18276 8.04263 9.22533 7.49712 10.4451C6.95161 11.6649 6.80888 13.0071 7.08698 14.302C7.36508 15.597 8.05151 16.7864 9.05948 17.72C10.0675 18.6536 11.3517 19.2894 12.7498 19.547C14.1479 19.8045 15.597 19.6723 16.914 19.1671C18.231 18.6618 19.3566 17.8062 20.1486 16.7084C20.9405 15.6106 21.3633 14.32 21.3633 12.9997C21.3633 11.2293 20.6039 9.53133 19.2523 8.27943C17.9006 7.02753 16.0674 6.32422 14.1559 6.32422ZM14.1559 17.3331C13.2305 17.3331 12.326 17.0789 11.5566 16.6028C10.7872 16.1266 10.1875 15.4498 9.83341 14.658C9.4793 13.8662 9.38665 12.9949 9.56717 12.1543C9.7477 11.3137 10.1933 10.5416 10.8476 9.93559C11.5019 9.32956 12.3356 8.91685 13.2431 8.74965C14.1507 8.58245 15.0914 8.66826 15.9463 8.99624C16.8012 9.32422 17.5319 9.87964 18.046 10.5922C18.5601 11.3049 18.8345 12.1427 18.8345 12.9997C18.8345 14.149 18.3415 15.2512 17.4641 16.0638C16.5867 16.8765 15.3967 17.3331 14.1559 17.3331Z" fill="#0B0B0B"/>
    <path d="M14.1557 2.34217C17.9032 2.34217 18.3477 2.35517 19.8273 2.418C20.7172 2.42779 21.5987 2.57913 22.4333 2.86542C23.0388 3.08175 23.5886 3.41309 24.0475 3.83812C24.5064 4.26315 24.8642 4.77245 25.0977 5.33325C25.4068 6.10624 25.5702 6.92267 25.5808 7.74692C25.6487 9.11733 25.6627 9.529 25.6627 13.0011C25.6627 16.4732 25.6487 16.8827 25.5808 18.2531C25.5702 19.0773 25.4068 19.8938 25.0977 20.6667C24.8642 21.2276 24.5064 21.7369 24.0475 22.1619C23.5886 22.5869 23.0388 22.9183 22.4333 23.1346C21.5987 23.4209 20.7172 23.5722 19.8273 23.582C18.3477 23.6448 17.9032 23.6578 14.1557 23.6578C10.4081 23.6578 9.96365 23.6448 8.48404 23.582C7.59412 23.5722 6.71264 23.4209 5.87806 23.1346C5.27258 22.9183 4.72269 22.5869 4.2638 22.1619C3.80491 21.7369 3.44717 21.2276 3.2136 20.6667C2.9045 19.8938 2.7411 19.0773 2.73053 18.2531C2.66269 16.8827 2.64866 16.471 2.64866 13C2.64866 9.529 2.66269 9.11733 2.73053 7.74692C2.7411 6.92267 2.9045 6.10624 3.2136 5.33325C3.44717 4.77245 3.80491 4.26315 4.2638 3.83812C4.72269 3.41309 5.27258 3.08175 5.87806 2.86542C6.71264 2.57913 7.59412 2.42779 8.48404 2.418C9.96365 2.35517 10.4081 2.34217 14.1557 2.34217ZM14.1557 0C10.3438 0 9.8654 0.0151667 8.36824 0.078C7.20418 0.0997708 6.05252 0.304167 4.96222 0.6825C4.02969 1.01649 3.18279 1.52726 2.4758 2.18207C1.76882 2.83688 1.21735 3.62128 0.856753 4.485C0.448145 5.49518 0.227461 6.56222 0.204088 7.64075C0.136248 9.02742 0.119873 9.46833 0.119873 13C0.119873 16.5317 0.136248 16.9737 0.204088 18.3603C0.227593 19.4385 0.448275 20.5052 0.856753 21.515C1.21735 22.3787 1.76882 23.1631 2.4758 23.8179C3.18279 24.4727 4.02969 24.9835 4.96222 25.3175C6.05289 25.696 7.20495 25.9004 8.36941 25.922C9.86657 25.9848 10.3438 26 14.1557 26C17.9676 26 18.4459 25.9848 19.9431 25.922C21.1076 25.9004 22.2596 25.696 23.3503 25.3175C24.2828 24.9835 25.1297 24.4727 25.8367 23.8179C26.5437 23.1631 27.0952 22.3787 27.4558 21.515C27.864 20.5048 28.0843 19.4377 28.1073 18.3593C28.1751 16.9726 28.1915 16.5317 28.1915 13C28.1915 9.46833 28.1751 9.02633 28.1073 7.63967C28.0838 6.56151 27.8631 5.49484 27.4546 4.485C27.094 3.62128 26.5425 2.83688 25.8355 2.18207C25.1286 1.52726 24.2817 1.01649 23.3491 0.6825C22.2584 0.304416 21.1063 0.100385 19.9419 0.0790833C18.4448 0.0140833 17.9687 0 14.1557 0Z" fill="#0B0B0B"/>
  </svg>

  <symbol id='bereal' width="58" height="36" viewBox="0 0 58 36" xmlns="http://www.w3.org/2000/svg">
    <path d="M37.4417 2.38135H51.7513V5.85296H37.4417V2.38135ZM23.1034 16.1172C26.2666 14.6037 27.9235 12.3013 27.9235 8.74357C27.9235 1.70711 22.6874 0 16.6408 0H0V35.3186H17.107C23.5194 35.3186 29.5374 32.2343 29.5374 25.0616C29.5374 20.6288 27.4429 17.3509 23.1034 16.1172ZM7.76091 6.0251H15.0412C17.8458 6.0251 20.3634 6.80693 20.3634 10.0634C20.3634 13.0616 18.4053 14.2666 15.6294 14.2666H7.76091V6.0251ZM16.0454 29.3222H7.75374V19.5959H16.2104C19.6246 19.5959 21.7836 21.0233 21.7836 24.6384C21.7836 28.1961 19.2086 29.3222 16.0454 29.3222ZM57.3461 22.9026C57.3461 15.3353 52.9205 9.03048 44.9157 9.03048C37.1333 9.03048 31.8398 14.8906 31.8398 22.5726C31.8398 30.5344 36.8536 36 44.9157 36C51.0197 36 54.9719 33.2528 56.8727 27.3927H50.6826C50.0084 29.5804 47.2684 30.728 45.1381 30.728C41.0209 30.728 38.8691 28.318 38.8691 24.2224H57.2959C57.3174 23.7992 57.3461 23.3545 57.3461 22.9026ZM38.8691 19.7896C39.0915 16.4256 41.3365 14.324 44.6934 14.324C48.2224 14.324 49.9869 16.3969 50.2953 19.7896H38.8691Z" />
  </symbol>

  <symbol id='bereal-mobile' width="45" height="26" viewBox="0 0 45 26" fill="none" xmlns="http://www.w3.org/2000/svg">
    <path d="M29.3933 1.71986H40.5515V4.22714H29.3933V1.71986ZM18.2128 11.6402C20.6793 10.5471 21.9713 8.88424 21.9713 6.3148C21.9713 1.23291 17.8884 0 13.1734 0H0.19751V25.5079H13.537C18.5372 25.5079 23.2298 23.2803 23.2298 18.1C23.2298 14.8986 21.5966 12.5312 18.2128 11.6402ZM6.24921 4.35146H11.9262C14.1131 4.35146 16.0762 4.91612 16.0762 7.26798C16.0762 9.43335 14.5493 10.3036 12.3848 10.3036H6.24921V4.35146ZM12.7092 21.1771H6.24362V14.1526H12.8378C15.5001 14.1526 17.1837 15.1835 17.1837 17.7944C17.1837 20.3638 15.1757 21.1771 12.7092 21.1771ZM44.9141 16.5407C44.9141 11.0755 41.4632 6.52202 35.2213 6.52202C29.1528 6.52202 25.0251 10.7543 25.0251 16.3025C25.0251 22.0526 28.9347 26 35.2213 26C39.981 26 43.0628 24.0159 44.5449 19.7836H39.7181C39.1924 21.3636 37.0558 22.1925 35.3947 22.1925C32.1843 22.1925 30.5063 20.4519 30.5063 17.4939H44.8749C44.8917 17.1883 44.9141 16.8671 44.9141 16.5407ZM30.5063 14.2925C30.6797 11.8629 32.4304 10.3451 35.0479 10.3451C37.7997 10.3451 39.1756 11.8422 39.4161 14.2925H30.5063Z" fill="#0B0B0B"/>
  </symbol>

  <symbol id='dribbble' width="36" height="36" viewBox="0 0 36 36" xmlns="http://www.w3.org/2000/svg">
    <path fill-rule="evenodd" clip-rule="evenodd" d="M18 0C8.0625 0 0 8.0625 0 18C0 27.9375 8.0625 36 18 36C27.918 36 36 27.9375 36 18C36 8.0625 27.918 0 18 0ZM29.889 8.2965C32.1052 10.9955 33.3316 14.3713 33.3645 17.8635C32.8575 17.766 27.7815 16.731 22.6665 17.376C22.548 17.121 22.4505 16.848 22.3335 16.575C22.0154 15.8241 21.6773 15.0818 21.3195 14.349C26.9805 12.045 29.5575 8.727 29.889 8.2965ZM18 2.6565C21.9045 2.6565 25.4775 4.119 28.191 6.5205C27.918 6.9105 25.5945 10.0155 20.1285 12.0645C17.6085 7.4385 14.8185 3.6495 14.388 3.0645C15.572 2.78803 16.7842 2.6506 18 2.655V2.6565ZM11.46 4.0995C11.8695 4.647 14.6025 8.454 17.16 12.9825C9.975 14.8965 3.63 14.8575 2.9475 14.8575C3.9435 10.0935 7.1655 6.1305 11.46 4.0995ZM2.616 18.0195V17.5515C3.2805 17.571 10.737 17.6685 18.411 15.3645C18.8595 16.224 19.269 17.1015 19.659 17.9805C19.464 18.039 19.2495 18.0975 19.0545 18.156C11.1285 20.7135 6.9105 27.702 6.5595 28.2885C4.02062 25.4708 2.6157 21.8123 2.616 18.0195ZM18 33.384C14.4465 33.384 11.1675 32.1735 8.571 30.144C8.844 29.577 11.967 23.5635 20.6355 20.538C20.6745 20.5185 20.6955 20.5185 20.733 20.499C22.9005 26.1015 23.778 30.807 24.0135 32.154C22.158 32.955 20.1285 33.384 18 33.384ZM26.571 30.7485C26.415 29.811 25.5945 25.3215 23.583 19.7955C28.4055 19.035 32.622 20.2845 33.15 20.46C32.4855 24.735 30.0255 28.425 26.571 30.7485Z" />
  </symbol>

  <svg id='dribbble-mobile' width="29" height="26" viewBox="0 0 29 26" fill="none" xmlns="http://www.w3.org/2000/svg">
    <path fill-rule="evenodd" clip-rule="evenodd" d="M14.6864 0C6.9375 0 0.650635 5.82292 0.650635 13C0.650635 20.1771 6.9375 26 14.6864 26C22.4202 26 28.7222 20.1771 28.7222 13C28.7222 5.82292 22.4202 0 14.6864 0ZM23.9571 5.99192C25.6852 7.9412 26.6415 10.3793 26.6672 12.9014C26.2718 12.831 22.3137 12.0835 18.3252 12.5493C18.2328 12.3652 18.1568 12.168 18.0656 11.9708C17.8175 11.4285 17.5538 10.8924 17.2749 10.3632C21.6891 8.69917 23.6986 6.30283 23.9571 5.99192ZM14.6864 1.91858C17.731 1.91858 20.5171 2.97483 22.633 4.70925C22.4202 4.99092 20.6084 7.23342 16.3462 8.71325C14.3812 5.37225 12.2056 2.63575 11.8699 2.21325C12.7931 2.01358 13.7384 1.91432 14.6864 1.9175V1.91858ZM9.58676 2.96075C9.90607 3.35617 12.0372 6.10567 14.0314 9.37625C8.42881 10.7586 3.48119 10.7304 2.949 10.7304C3.72564 7.28975 6.23805 4.42758 9.58676 2.96075ZM2.6905 13.0141V12.6761C3.20866 12.6902 9.02299 12.7606 15.0069 11.0966C15.3566 11.7173 15.676 12.3511 15.9801 12.9859C15.828 13.0282 15.6608 13.0704 15.5087 13.1127C9.32827 14.9598 6.03921 20.007 5.76551 20.4306C3.78578 18.3956 2.69027 15.7533 2.6905 13.0141ZM14.6864 24.1107C11.9155 24.1107 9.35868 23.2364 7.33401 21.7707C7.54689 21.3612 9.9821 17.0181 16.7415 14.833C16.7719 14.8189 16.7883 14.8189 16.8175 14.8048C18.5077 18.8511 19.1919 22.2495 19.3756 23.2223C17.9287 23.8008 16.3462 24.1107 14.6864 24.1107ZM21.3698 22.2073C21.2482 21.5302 20.6084 18.2878 19.0399 14.2968C22.8003 13.7475 26.0882 14.6499 26.4999 14.7767C25.9817 17.8642 24.0635 20.5292 21.3698 22.2073Z" fill="#0B0B0B"/>
  </svg>

</svg>